<svg width="80" height="80" viewBox="0 0 80 80" fill="none" xmlns="http://www.w3.org/2000/svg">
<g id="Ring Services">
<path id="Vector" d="M78.75 31.25L55.6388 20.25C53.5729 19.2638 51.3129 18.7513 49.0238 18.75C48.0105 18.7499 46.9998 18.85 46.0062 19.0488L18.475 24.5487C17.8465 24.6744 17.2812 25.0142 16.8754 25.5103C16.4696 26.0063 16.2486 26.6279 16.25 27.2688C16.2499 27.7244 16.3624 28.1729 16.5774 28.5746C16.7924 28.9763 17.1033 29.3186 17.4825 29.5712C19.1243 30.6655 21.0532 31.2496 23.0262 31.25H23.1413C23.5465 31.25 23.9513 31.2263 24.3538 31.1788L44 28.875C44.6683 28.7942 45.3406 28.7525 46.0138 28.75C49.428 28.7496 52.7659 29.7605 55.6063 31.655L58.75 33.75L54.9487 34.3837C52.487 34.7939 49.9956 35 47.5 35H38.75C37.7554 35 36.8016 35.3951 36.0983 36.0983C35.3951 36.8016 35 37.7554 35 38.75C35 39.7446 35.3951 40.6984 36.0983 41.4016C36.8016 42.1049 37.7554 42.5 38.75 42.5H46.3562C48.7407 42.4999 51.0804 43.148 53.125 44.375C55.1696 45.602 57.5093 46.2501 59.8938 46.25H65.7688C67.7384 46.2497 69.6899 45.8739 71.5188 45.1425C73.8186 44.2225 76.2729 43.7499 78.75 43.75V31.25ZM31.05 44.51C31.9863 45.6327 32.4993 47.0481 32.5 48.51V50C32.5 52.0713 26.3438 53.75 18.75 53.75C11.1562 53.75 5 52.0713 5 50V48.5112C4.99996 47.0497 5.51214 45.6343 6.4475 44.5113C7.95042 42.7078 9.83151 41.2569 11.9575 40.2613C14.0835 39.2657 16.4024 38.7498 18.75 38.75C21.0971 38.75 23.4154 39.2659 25.541 40.2613C27.6665 41.2567 29.5472 42.7071 31.05 44.51Z" fill="#00B050"/>
<path id="Vector_2" d="M33.75 50V48.515C33.749 46.7593 33.1334 45.0593 32.01 43.71C29.4846 40.6806 25.9946 38.6112 22.125 37.8487C22.3679 37.3505 22.496 36.8042 22.5 36.25C22.5 35.2554 22.1049 34.3016 21.4017 33.5983C20.6984 32.8951 19.7446 32.5 18.75 32.5C17.7554 32.5 16.8016 32.8951 16.0984 33.5983C15.3951 34.3016 15 35.2554 15 36.25C15.004 36.8042 15.1322 37.3505 15.375 37.8487C11.5041 38.6113 8.01317 40.6816 5.48751 43.7125C4.36582 45.0602 3.75113 46.7579 3.75001 48.5112V50C3.75125 50.228 3.78578 50.4545 3.85251 50.6725C2.17362 52.5501 1.24688 54.9813 1.25001 57.5C1.25001 62.36 16.9588 62.5 18.75 62.5C20.5413 62.5 36.25 62.36 36.25 57.5C36.2532 54.9817 35.3264 52.5508 33.6475 50.6738C33.7141 50.4553 33.7487 50.2284 33.75 50ZM18.75 35C18.9972 35 19.2389 35.0733 19.4445 35.2107C19.65 35.348 19.8102 35.5432 19.9049 35.7716C19.9995 36.0001 20.0242 36.2514 19.976 36.4939C19.9278 36.7363 19.8087 36.9591 19.6339 37.1339C19.4591 37.3087 19.2363 37.4278 18.9939 37.476C18.7514 37.5242 18.5001 37.4995 18.2717 37.4048C18.0432 37.3102 17.848 37.15 17.7107 36.9445C17.5733 36.7389 17.5 36.4972 17.5 36.25C17.5 35.9185 17.6317 35.6005 17.8661 35.3661C18.1005 35.1317 18.4185 35 18.75 35ZM6.25001 48.5112C6.25042 47.3429 6.65995 46.2116 7.40751 45.3137C8.79294 43.6511 10.527 42.3134 12.4869 41.3954C14.4468 40.4774 16.5845 40.0015 18.7488 40.0015C20.913 40.0015 23.0507 40.4774 25.0106 41.3954C26.9705 42.3134 28.7046 43.6511 30.09 45.3137C30.8381 46.213 31.2484 47.3453 31.25 48.515L31.2575 49.9475C30.9088 50.8388 26.305 52.5 18.75 52.5C11.195 52.5 6.59126 50.8388 6.25001 50V48.5112ZM18.75 60C9.82876 60 4.39626 58.3637 3.75001 57.4162C3.76502 55.6446 4.38662 53.9315 5.51126 52.5625C8.50001 54.4262 14.6588 55 18.75 55C22.8413 55 29 54.4262 31.9888 52.5625C33.1134 53.9315 33.735 55.6446 33.75 57.4162C33.1038 58.3637 27.6713 60 18.75 60Z" fill="#F8F8FF"/>
<path id="Vector_3" d="M18.7202 25.7799L46.2502 20.2749C49.2419 19.688 52.3429 20.073 55.1002 21.3737L78.2127 32.3749L79.2877 30.1174L56.1765 19.1149C52.9311 17.5842 49.2811 17.1318 45.7602 17.8237L18.229 23.3237C17.4496 23.4797 16.7341 23.8633 16.1729 24.4261C15.6116 24.9888 15.2299 25.7054 15.076 26.4851C14.9221 27.2649 15.003 28.0728 15.3083 28.8065C15.6137 29.5403 16.1298 30.167 16.7914 30.6074C19.0629 32.1111 21.7966 32.7543 24.5002 32.4212L31.8315 31.5574C32.3439 33.5703 33.0558 35.527 33.9565 37.3987C33.8253 37.8373 33.7559 38.2921 33.7502 38.7499C33.7539 39.932 34.1763 41.0746 34.9424 41.9748C35.7086 42.8751 36.7689 43.4747 37.9352 43.6674L40.2727 46.6674C40.7736 47.3173 41.4174 47.8432 42.1541 48.2043C42.8909 48.5654 43.7009 48.7521 44.5215 48.7499C45.6426 48.7486 46.7174 48.3026 47.5102 47.5099C48.3029 46.7171 48.7489 45.6423 48.7502 44.5212C48.7392 44.3487 48.7175 44.1772 48.6852 44.0074C50.0237 44.2661 51.3078 44.7527 52.4815 45.4462C54.7209 46.79 57.2835 47.4999 59.8952 47.4999H65.7702C67.8988 47.5016 70.0081 47.0955 71.984 46.3037C74.1353 45.4407 76.4322 44.9981 78.7502 44.9999V42.4999C76.1136 42.4976 73.501 43.0009 71.054 43.9824C69.3734 44.6559 67.5794 45.0013 65.769 44.9999H59.894C57.7364 44.9993 55.6195 44.413 53.769 43.3037C51.5295 41.9598 48.9669 41.25 46.3552 41.2499H38.7502C38.0872 41.2499 37.4513 40.9865 36.9824 40.5177C36.5136 40.0488 36.2502 39.413 36.2502 38.7499C36.2502 38.0869 36.5136 37.451 36.9824 36.9822C37.4513 36.5133 38.0872 36.2499 38.7502 36.2499H47.5002C50.0649 36.2489 52.6252 36.037 55.1552 35.6162L58.9565 34.9824C59.2035 34.941 59.4325 34.8264 59.6136 34.6533C59.7947 34.4802 59.9196 34.2567 59.9722 34.0118C60.0247 33.7668 60.0025 33.5118 59.9083 33.2796C59.8141 33.0475 59.6523 32.849 59.444 32.7099L56.3002 30.6137C52.6363 28.1695 48.2218 27.1099 43.8477 27.6249L24.2077 29.9374C23.8152 29.9821 23.4203 30.0029 23.0252 29.9999C21.2991 30.0016 19.6115 29.4904 18.1765 28.5312C17.9269 28.3646 17.7324 28.1279 17.6174 27.8509C17.5024 27.5738 17.472 27.2689 17.5302 26.9746C17.5884 26.6804 17.7325 26.4099 17.9443 26.1975C18.1561 25.9851 18.4261 25.839 18.7202 25.7799ZM44.5215 46.2499C44.082 46.2516 43.6481 46.1519 43.2533 45.9588C42.8586 45.7656 42.5136 45.4842 42.2452 45.1362L41.1677 43.7499H46.0602C46.1953 44.0124 46.2604 44.3053 46.2492 44.6004C46.2379 44.8954 46.1507 45.1825 45.996 45.4339C45.8412 45.6854 45.6242 45.8926 45.3658 46.0355C45.1075 46.1785 44.8167 46.2523 44.5215 46.2499ZM35.5765 34.9187C35.0804 33.7296 34.6649 32.5085 34.3327 31.2637L40.0002 30.5974V32.4999C39.9999 32.7122 40.0541 32.9209 40.1577 33.1062L40.5152 33.7499H38.7502C37.5879 33.7549 36.4644 34.1686 35.5765 34.9187ZM55.4277 33.0437L54.7427 33.1574C52.7779 33.4816 50.7933 33.6724 48.8027 33.7287C48.8762 32.5961 49.0333 31.4706 49.2727 30.3612C51.2854 30.7729 53.2004 31.5668 54.914 32.6999L55.4277 33.0437ZM44.1402 30.1162C45.0172 30.015 45.9011 29.9874 46.7827 30.0337C46.5312 31.259 46.3699 32.501 46.3002 33.7499H43.3752L42.5002 32.1762V30.3012L44.1402 30.1162Z" fill="#F8F8FF"/>
</g>
</svg>
