<svg width="80" height="80" viewBox="0 0 80 80" fill="none" xmlns="http://www.w3.org/2000/svg">
<g id="Team">
<path id="Vector" d="M40 18.575C34.6625 18.575 30.3125 22.925 30.3125 28.275C30.3125 33.6125 34.6625 37.9625 40 37.9625C45.35 37.9625 49.6875 33.6125 49.6875 28.275C49.6875 22.925 45.35 18.575 40 18.575ZM40 34.375C36.6375 34.375 33.8875 31.6375 33.8875 28.275C33.8875 24.9 36.6375 22.1625 40 22.1625C43.375 22.1625 46.1125 24.9 46.1125 28.275C46.1125 31.65 43.375 34.375 40 34.375Z" fill="#F8F8FF"/>
<path id="Vector_2" d="M46.1127 28.2875C46.1127 31.65 43.3752 34.3875 40.0002 34.3875C36.6377 34.3875 33.8877 31.65 33.8877 28.2875C33.8877 24.9125 36.6377 22.175 40.0002 22.175C43.3752 22.175 46.1127 24.9 46.1127 28.2875Z" fill="#00B050"/>
<path id="Vector_3" d="M63.2249 25.6875C58.6749 25.6875 54.9624 29.4 54.9624 33.95C54.9624 38.5125 58.6749 42.2125 63.2249 42.2125C67.7749 42.2125 71.4874 38.5125 71.4874 33.95C71.4874 29.3875 67.7749 25.6875 63.2249 25.6875ZM63.2249 38.6375C61.9839 38.6342 60.7948 38.1389 59.9184 37.2602C59.042 36.3814 58.5499 35.191 58.5499 33.95C58.5499 31.375 60.6499 29.275 63.2249 29.275C65.7999 29.275 67.8999 31.375 67.8999 33.95C67.8999 35.191 67.4078 36.3814 66.5314 37.2602C65.655 38.1389 64.4659 38.6342 63.2249 38.6375Z" fill="#F8F8FF"/>
<path id="Vector_4" d="M67.8998 33.95C67.8998 35.1911 67.4077 36.3815 66.5313 37.2602C65.6549 38.1389 64.4658 38.6342 63.2248 38.6375C61.9838 38.6342 60.7947 38.1389 59.9183 37.2602C59.0419 36.3815 58.5498 35.1911 58.5498 33.95C58.5498 31.375 60.6498 29.275 63.2248 29.275C64.4647 29.275 65.6538 29.7676 66.5305 30.6443C67.4073 31.521 67.8998 32.7101 67.8998 33.95Z" fill="#0B0B0B"/>
<path id="Vector_5" d="M64.3625 44.0125H62.075C59.2875 44.0125 56.6125 44.7375 54.2625 46.1125C50.9 42.925 46.3875 40.95 41.4 40.95H38.6C33.6125 40.95 29.1 42.925 25.7375 46.125C23.369 44.7351 20.6712 44.0056 17.925 44.0125H15.6375C7.0125 44.0125 0 51.0125 0 59.6375C0 60.625 0.8 61.425 1.7875 61.425H78.2C79.2 61.425 80 60.625 80 59.6375C80 51.0125 72.9875 44.0125 64.3625 44.0125ZM20.0125 57.85H3.7125C4.575 52.05 9.6 47.5875 15.6375 47.5875H17.925C19.8375 47.5875 21.675 48.0375 23.35 48.8875C21.4699 51.5302 20.3188 54.6213 20.0125 57.85ZM23.6 57.85C24.4875 50.3625 30.875 44.5375 38.6 44.5375H41.4C49.125 44.5375 55.5125 50.3625 56.4 57.85H23.6ZM60 57.85C59.6873 54.6169 58.5322 51.5223 56.65 48.875C58.3327 48.0272 60.1908 47.5862 62.075 47.5875H64.3625C70.4 47.5875 75.4125 52.05 76.275 57.85H60Z" fill="#F8F8FF"/>
<path id="Vector_6" d="M23.3499 48.875C21.4717 51.5187 20.3208 54.6093 20.0124 57.8375H3.7124C4.5749 52.0375 9.5999 47.575 15.6374 47.575H17.9249C19.8374 47.575 21.6749 48.025 23.3499 48.875Z" fill="#0B0B0B"/>
<path id="Vector_7" d="M76.2749 57.85H59.9999C59.6872 54.6169 58.5321 51.5223 56.6499 48.875C58.3326 48.0272 60.1907 47.5862 62.0749 47.5875H64.3624C70.3999 47.575 75.4124 52.0375 76.2749 57.85Z" fill="#0B0B0B"/>
<path id="Vector_8" d="M56.4001 57.85H23.6001C24.4876 50.3625 30.8751 44.5375 38.6001 44.5375H41.4001C49.1251 44.5375 55.5126 50.35 56.4001 57.85Z" fill="#00B050"/>
<path id="Vector_9" d="M16.7752 25.6875C12.2252 25.6875 8.5127 29.4 8.5127 33.95C8.5127 38.5125 12.2252 42.2125 16.7752 42.2125C18.9665 42.2125 21.0681 41.342 22.6177 39.7925C24.1672 38.243 25.0377 36.1414 25.0377 33.95C25.0377 31.7586 24.1672 29.6571 22.6177 28.1075C21.0681 26.558 18.9665 25.6875 16.7752 25.6875ZM16.7752 38.6375C15.5342 38.6342 14.3451 38.1389 13.4687 37.2602C12.5923 36.3814 12.1002 35.191 12.1002 33.95C12.1002 31.375 14.2002 29.275 16.7752 29.275C18.0162 29.275 19.2066 29.7671 20.0853 30.6435C20.9641 31.5199 21.4594 32.709 21.4627 33.95C21.4627 36.5375 19.3627 38.6375 16.7752 38.6375Z" fill="#F8F8FF"/>
<path id="Vector_10" d="M21.4626 33.95C21.4626 36.5375 19.3626 38.6375 16.7751 38.6375C15.5341 38.6342 14.345 38.1389 13.4686 37.2602C12.5922 36.3815 12.1001 35.1911 12.1001 33.95C12.1001 31.375 14.2001 29.275 16.7751 29.275C19.3626 29.275 21.4626 31.3625 21.4626 33.95Z" fill="#0B0B0B"/>
</g>
</svg>
