<svg width="150" height="150" viewBox="0 0 150 150" fill="none" xmlns="http://www.w3.org/2000/svg">
<g id="Barn">
<path id="Vector" d="M139.616 78.0151C138.787 75.9202 137.734 73.8949 136.613 71.8974M139.616 78.0151L139.477 78.0703M139.616 78.0151C139.616 78.0151 139.616 78.015 139.616 78.0149L139.477 78.0703M139.616 78.0151C139.999 78.9778 140.26 80.2186 140.438 82.1522C140.617 84.0862 140.713 86.722 140.763 90.4785C140.827 95.2525 140.814 101.844 140.797 111.117C140.787 116.438 140.775 122.641 140.775 129.891C140.775 136.029 135.144 140.681 129.984 140.681H19.9688C17.4174 140.681 14.7218 139.514 12.665 137.588C10.6069 135.66 9.17812 132.962 9.17812 129.891V48.0703L9.17812 48.0623C9.17812 46.5281 9.17811 43.6925 10.6676 41.2338C12.1687 38.7559 15.1597 36.6939 21.0697 36.6703L21.0703 36.6703L21.3281 36.6703C43.9075 36.6703 57.0222 46.7225 60.716 50.0341M136.613 71.8974L139.477 78.0703M136.613 71.8974C139.068 70.5878 140.775 68.0921 140.775 65.1094V38.3438C140.775 34.1151 137.367 30.6813 133.158 30.6014V30.5766H133.008H115.641C111.128 30.5766 107.452 34.2531 107.452 38.7656C107.452 43.2787 111.129 46.9312 115.641 46.9312H122.602C123.972 46.9312 125.1 48.0594 125.1 49.4297C125.1 50.8 123.972 51.9281 122.602 51.9281H116.052M136.613 71.8974L116.016 52.0781M139.477 78.0703C140.703 81.1559 140.692 87.2504 140.647 111.116C140.637 116.437 140.625 122.64 140.625 129.891C140.625 135.938 135.07 140.531 129.984 140.531H19.9688C14.9531 140.531 9.32812 135.938 9.32812 129.891V48.0703C9.32812 45 9.32812 36.8672 21.0703 36.8203H21.3281C43.9922 36.8203 57.0938 46.9688 60.6797 50.2031M60.716 50.0341C60.6887 50.0428 60.6613 50.0515 60.634 50.0603L60.6797 50.2031M60.716 50.0341C60.7377 50.0535 60.7591 50.0728 60.7802 50.0917L60.6797 50.2031M60.716 50.0341C69.2821 47.3032 78.4332 45.5531 87.7969 45.5531C98.4438 45.5531 107.949 47.7313 116.052 51.9281M60.6797 50.2031C69.2578 47.4609 78.4219 45.7031 87.7969 45.7031C98.4375 45.7031 107.93 47.8828 116.016 52.0781M116.016 52.0781V51.9281H116.052M116.016 52.0781L116.085 51.945C116.074 51.9394 116.063 51.9337 116.052 51.9281M130.111 49.0441L130.079 49.0757C129.895 45.1029 126.62 41.9438 122.602 41.9438H115.641C113.871 41.9438 112.439 40.5102 112.439 38.7656C112.439 37.0197 113.873 35.5641 115.641 35.5641H133.008C134.543 35.5641 135.787 36.8102 135.787 38.3203V65.0859C135.787 66.6187 134.544 67.8422 133.008 67.8422H90.5625C87.5516 67.8422 85.0875 65.3781 85.0875 62.3672C85.0875 59.3563 87.5516 56.8922 90.5625 56.8922H122.625C126.763 56.8922 130.111 53.5438 130.111 49.4063V49.0441ZM135.583 84.3165C135.696 86.2409 135.738 88.4014 135.762 90.1781H123.727H123.727H123.726H123.726H123.726H123.726H123.726H123.726H123.726H123.726H123.726H123.726H123.726H123.726H123.726H123.726H123.726H123.725H123.725H123.725H123.725H123.725H123.725H123.725H123.725H123.725H123.725H123.725H123.725H123.725H123.724H123.724H123.724H123.724H123.724H123.724H123.724H123.724H123.724H123.724H123.723H123.723H123.723H123.723H123.723H123.723H123.723H123.723H123.723H123.723H123.723H123.722H123.722H123.722H123.722H123.722H123.722H123.722H123.722H123.722H123.722H123.722H123.722H123.722H123.722H123.722H123.722H123.721H123.721H123.721H123.721H123.721H123.721H123.721H123.721H123.721H123.721H123.721H123.721H123.721H123.721H123.72H123.72H123.72H123.72H123.72H123.72H123.72H123.72H123.72H123.72H123.72H123.72H123.72H123.72H123.719H123.719H123.719H123.719H123.719H123.719H123.719H123.719H123.719H123.719H123.719H123.719H123.718H123.718H123.718H123.718H123.718H123.718H123.718H123.718H123.718H123.718H123.718H123.718H123.717H123.717H123.717H123.717H123.717H123.717H123.717H123.717H123.717H123.717H123.717H123.717H123.716H123.716H123.716H123.716H123.716H123.716H123.716H123.716H123.716H123.716H123.716H123.715H123.715H123.715H123.715H123.715H123.715H123.715H123.715H123.715H123.715H123.715H123.714H123.714H123.714H123.714H123.714H123.714H123.714H123.714H123.714H123.714H123.713H123.713H123.713H123.713H123.713H123.713H123.713H123.713H123.713H123.713H123.712H123.712H123.712H123.712H123.712H123.712H123.712H123.712H123.712H123.712H123.711H123.711H123.711H123.711H123.711H123.711H123.711H123.711H123.711H123.71H123.71H123.71H123.71H123.71H123.71H123.71H123.71H123.71H123.709H123.709H123.709H123.709H123.709H123.709H123.709H123.709H123.709H123.708H123.708H123.708H123.708H123.708H123.708H123.708H123.708H123.708H123.707H123.707H123.707H123.707H123.707H123.707H123.707H123.707H123.707H123.706H123.706H123.706H123.706H123.706H123.706H123.706H123.706H123.706H123.705H123.705H123.705H123.705H123.705H123.705H123.705H123.705H123.704H123.704H123.704H123.704H123.704H123.704H123.704H123.704H123.704H123.703H123.703H123.703H123.703H123.703H123.703H123.703H123.703H123.702H123.702H123.702H123.702H123.702H123.702H123.702H123.702H123.701H123.701H123.701H123.701H123.701H123.701H123.701H123.701H123.7H123.7H123.7H123.7H123.7H123.7H123.7H123.7H123.699H123.699H123.699H123.699H123.699H123.699H123.699H123.699H123.698H123.698H123.698H123.698H123.698H123.698H123.698H123.698H123.697H123.697H123.697H123.697H123.697H123.697H123.697H123.697H123.696H123.696H123.696H123.696H123.696H123.696H123.696H123.695H123.695H123.695H123.695H123.695H123.695H123.695H123.695H123.694H123.694H123.694H123.694H123.694H123.694H123.694H123.694H123.693H123.693H123.693H123.693H123.693H123.693H123.693H123.692H123.692H123.692H123.692H123.692H123.692H123.692H123.692H123.691H123.691H123.691H123.691H123.691H123.691H123.691H123.69H123.69H123.69H123.69H123.69H123.69H123.69H123.69H123.689H123.689H123.689H123.689H123.689H123.689H123.689H123.688H123.688H123.688H123.688H123.688H123.688H123.688H123.687H123.687H123.687H123.687H123.687H123.687H123.687H123.687H123.686H123.686H123.686H123.686H123.686H123.686H123.686H123.685H123.685H123.685H123.685H123.685H123.685H123.685H123.684H123.684H123.684H123.684H123.684H123.684H123.684H123.684H123.683H123.683H123.683H123.683H123.683H123.683H123.683H123.682H123.682H123.682H123.682H123.682H123.682H123.682H123.681H123.681H123.681H123.681H123.681H123.681H123.681H123.681H123.68H123.68H123.68H123.68H123.68H123.68H14.3188C14.5881 86.9347 15.3522 84.3368 16.5015 82.8495L16.5021 82.8488C19.2042 79.308 28.1564 71.2283 40.8844 64.0329C53.6089 56.8395 70.0891 50.5406 87.8438 50.5406C92.6118 50.5406 97.0908 51.0207 101.298 51.9281H90.5625C84.7841 51.9281 80.1 56.6361 80.1 62.3906C80.1 68.1451 84.7841 72.8531 90.5625 72.8531H131.33C132.718 75.1244 134.008 77.4361 134.954 79.8363L134.955 79.8377C135.111 80.223 135.24 80.8425 135.343 81.6236C135.447 82.4012 135.524 83.3266 135.583 84.3165ZM111.871 95.1656H122.56L135.764 109.231V129.867C135.764 130.774 135.483 131.611 135.084 132.381L111.871 95.1656ZM20.9672 41.6119V41.6344H21.1172H21.3516C38.7265 41.6344 50.0567 48.1967 55.1424 51.9408C36.0732 59.1237 20.7116 70.6805 14.2125 77.8203V48.0234C14.2125 46.334 14.218 44.7539 15.0659 43.5821C15.8926 42.4395 17.5565 41.6457 20.9672 41.6119ZM18.8478 135.44L44.0051 95.1422H54.2607L40.7668 135.67H20.0156C19.6671 135.67 19.3632 135.585 19.0275 135.49C18.9687 135.474 18.909 135.457 18.8478 135.44ZM105.971 95.1656L131.11 135.448C131.077 135.457 131.045 135.466 131.013 135.475C130.662 135.575 130.327 135.67 129.961 135.67H109.186L95.6925 95.1656H105.971ZM135.764 95.1656V101.948L129.416 95.1656H135.764ZM66.1154 95.1422L61.3666 135.67H46.0284L59.5222 95.1422H66.1154ZM66.3795 135.67L71.1256 95.1656H78.8275L83.5736 135.67H66.3795ZM90.4544 95.1656L103.948 135.67H88.61L83.8639 95.1656H90.4544ZM38.1436 95.1656L14.8926 132.404C14.4939 131.635 14.2125 130.798 14.2125 129.891V109.255L27.4399 95.1656H38.1436ZM14.2125 95.1422H20.5838L14.2125 101.948V95.1422Z" fill="#F8F8FF" stroke="#F8F8FF" stroke-width="0.3"/>
<path id="Vector_2" d="M102.118 19.9359H102.081L104.098 17.9186C105.071 16.9459 105.071 15.3744 104.098 14.4017C103.126 13.4291 101.554 13.4291 100.581 14.4017L98.308 16.6752C97.3354 17.6478 97.3354 19.2194 98.308 20.192C98.8073 20.6913 99.4325 20.9156 100.078 20.9156C100.727 20.9156 101.35 20.6656 101.846 20.1947L102.118 19.9359ZM83.2362 38.7807L83.2389 38.7779L85.5124 36.5045C86.485 35.5319 86.485 33.9603 85.5124 32.9877C84.5397 32.015 82.9682 32.015 81.9955 32.9877L79.7221 35.2611C78.7495 36.2338 78.7495 37.8053 79.7221 38.7779C80.2153 39.2711 80.8314 39.4961 81.4688 39.5015V39.5016H81.4922V39.5015C82.1329 39.4955 82.7465 39.2458 83.2362 38.7807ZM98.308 36.5045L100.325 38.5219H100.302L100.558 38.7779C101.057 39.2772 101.682 39.5016 102.328 39.5016C102.977 39.5016 103.6 39.2515 104.096 38.7807L104.098 38.7779C105.071 37.8053 105.071 36.2338 104.098 35.2611L101.825 32.9877C100.852 32.015 99.2807 32.015 98.308 32.9877C97.3354 33.9603 97.3354 35.5319 98.308 36.5045ZM85.4862 20.1947L85.4889 20.192C86.4616 19.2194 86.4616 17.6478 85.4889 16.6752L83.2155 14.4017C82.2428 13.4291 80.6713 13.4291 79.6987 14.4017C78.726 15.3744 78.726 16.9459 79.6987 17.9186L81.9721 20.192C82.4653 20.6852 83.0814 20.9101 83.7188 20.9155V20.9156H83.7422V20.9155C84.3829 20.9096 84.9965 20.6599 85.4862 20.1947ZM17.9629 115.822L17.9465 115.819H17.9297H17.9268C17.7526 115.771 17.5588 115.748 17.3672 115.748C16.2209 115.748 15.1978 116.545 14.9475 117.67C14.6486 118.99 15.4691 120.362 16.8191 120.662C18.1616 120.96 19.5101 120.141 19.8104 118.814C20.1091 117.495 19.2897 116.123 17.9629 115.822ZM23.1938 107.27V107.327V107.479C21.9996 107.29 20.8012 108.05 20.5313 109.242L20.3858 109.206C20.3856 109.206 20.3855 109.207 20.3854 109.207C20.3363 109.404 20.311 109.58 20.311 109.781C20.311 110.928 21.1079 111.951 22.2331 112.201C23.5515 112.499 24.9217 111.681 25.2236 110.334C25.2741 110.155 25.2985 109.955 25.2985 109.758C25.2985 108.611 24.5014 107.589 23.3794 107.315L23.1938 107.27ZM99.9235 26.5781C99.9235 22.1593 96.3173 18.5531 91.8985 18.5531C87.4797 18.5531 83.8735 22.1593 83.8735 26.5781C83.8735 30.9969 87.4797 34.6031 91.8985 34.6031C96.3173 34.6031 99.9235 30.9969 99.9235 26.5781ZM91.8985 29.6156C90.2235 29.6156 88.861 28.2531 88.861 26.5781C88.861 24.9032 90.2235 23.5406 91.8985 23.5406C93.5735 23.5406 94.936 24.9032 94.936 26.5781C94.936 28.2531 93.5735 29.6156 91.8985 29.6156ZM94.3922 15.0469V11.8359C94.3922 10.464 93.2704 9.34219 91.8985 9.34219C90.5266 9.34219 89.4047 10.464 89.4047 11.8359V15.0469C89.4047 16.4188 90.5266 17.5406 91.8985 17.5406C93.2704 17.5406 94.3922 16.4188 94.3922 15.0469ZM89.4047 38.1328V41.3437C89.4047 42.7157 90.5266 43.8375 91.8985 43.8375C93.2704 43.8375 94.3922 42.7157 94.3922 41.3437V38.1328C94.3922 36.7609 93.2704 35.6391 91.8985 35.6391C90.5266 35.6391 89.4047 36.7609 89.4047 38.1328ZM109.134 26.5781C109.134 25.2062 108.013 24.0844 106.641 24.0844H103.43C102.058 24.0844 100.936 25.2062 100.936 26.5781C100.936 27.95 102.058 29.0719 103.43 29.0719H106.641C108.013 29.0719 109.134 27.95 109.134 26.5781ZM74.6625 26.5781C74.6625 27.95 75.7844 29.0719 77.1563 29.0719H80.3672C81.7391 29.0719 82.861 27.95 82.861 26.5781C82.861 25.2062 81.7391 24.0844 80.3672 24.0844H77.1563C75.7844 24.0844 74.6625 25.2062 74.6625 26.5781ZM28.5896 98.8512C27.2425 98.6766 25.9714 99.6479 25.7966 100.996C25.622 102.343 26.5933 103.615 27.9417 103.789C29.2888 103.964 30.5599 102.993 30.7347 101.644C30.9094 100.297 29.9381 99.026 28.5896 98.8512Z" fill="#F8F8FF" stroke="#F8F8FF" stroke-width="0.3"/>
<path id="Vector_3" d="M55.7578 131.564C57.1351 131.564 58.2516 130.448 58.2516 129.07C58.2516 127.693 57.1351 126.577 55.7578 126.577C54.3806 126.577 53.2641 127.693 53.2641 129.07C53.2641 130.448 54.3806 131.564 55.7578 131.564Z" fill="#F8F8FF" stroke="#F8F8FF" stroke-width="0.3"/>
<path id="Vector_4" d="M57.6656 122.486V122.456C58.9473 122.489 60.0998 121.519 60.2197 120.201C60.3442 118.855 59.3485 117.608 57.9745 117.483L57.9746 117.483H57.9609H57.9605H57.9601H57.9597H57.9593H57.9589H57.9585H57.958H57.9576H57.9572H57.9568H57.9564H57.956H57.9555H57.9551H57.9547H57.9543H57.9539H57.9534H57.953H57.9526H57.9522H57.9517H57.9513H57.9509H57.9505H57.9501H57.9496H57.9492H57.9488H57.9483H57.9479H57.9475H57.9471H57.9466H57.9462H57.9458H57.9453H57.9449H57.9445H57.9441H57.9436H57.9432H57.9428H57.9423H57.9419H57.9415H57.941H57.9406H57.9401H57.9397H57.9393H57.9388H57.9384H57.938H57.9375H57.9371H57.9366H57.9362H57.9358H57.9353H57.9349H57.9344H57.934H57.9336H57.9331H57.9327H57.9322H57.9318H57.9313H57.9309H57.9305H57.93H57.9296H57.9291H57.9287H57.9282H57.9278H57.9273H57.9269H57.9264H57.926H57.9255H57.9251H57.9246H57.9242H57.9237H57.9233H57.9228H57.9224H57.9219H57.9215H57.921H57.9206H57.9201H57.9197H57.9192H57.9188H57.9183H57.9179H57.9174H57.917H57.9165H57.916H57.9156H57.9151H57.9147H57.9142H57.9138H57.9133H57.9128H57.9124H57.9119H57.9115H57.911H57.9105H57.9101H57.9096H57.9092H57.9087H57.9082H57.9078H57.9073H57.9069H57.9064H57.9059H57.9055H57.905H57.9045H57.9041H57.9036H57.9031H57.9027H57.9022H57.9018H57.9013H57.9008H57.9004H57.8999H57.8994H57.899H57.8985H57.898H57.8976H57.8971H57.8966H57.8962H57.8957H57.8952H57.8948H57.8943H57.8938H57.8933H57.8929H57.8924H57.8919H57.8915H57.891H57.8905H57.8901H57.8896H57.8891H57.8886H57.8882H57.8877H57.8872H57.8868H57.8863H57.8858H57.8853H57.8849H57.8844H57.8839H57.8834H57.883H57.8825H57.882H57.8815H57.8811H57.8806H57.8801H57.8797H57.8792H57.8787H57.8782H57.8778H57.8773H57.8768H57.8763H57.8758H57.8754H57.8749H57.8744H57.8739H57.8735H57.873H57.8725H57.872H57.8716H57.8711H57.8706H57.8701H57.8697H57.8692H57.8687H57.8682H57.8677H57.8673H57.8668H57.8663H57.8658H57.8653H57.8649H57.8644H57.8639H57.8634H57.863H57.8625H57.862H57.8615H57.861H57.8606H57.8601H57.8596H57.8591H57.8586H57.8582H57.8577H57.8572H57.8567H57.8562H57.8558H57.8553H57.8548H57.8543H57.8538H57.8534H57.8529H57.8524H57.8519H57.8514H57.851H57.8505H57.85H57.8495H57.849H57.8486H57.8481H57.8476H57.8471H57.8466H57.8462H57.8457H57.8452H57.8447H57.8442H57.8438H57.8433H57.8428H57.8423H57.8418H57.8413H57.8409H57.8404H57.8399H57.8394H57.8389H57.8385H57.838H57.8375H57.837H57.8365H57.8361H57.8356H57.8351H57.8346H57.8341H57.8337H57.8332H57.8327H57.8322H57.8317H57.8313H57.8308H57.8303H57.8298H57.8293H57.8289H57.8284H57.8279H57.8274H57.8269H57.8265H57.826H57.8255H57.825H57.8245H57.8241H57.8236H57.8231H57.8226H57.8222H57.8217H57.8212H57.8207H57.8202H57.8198H57.8193H57.8188H57.8183H57.8178H57.8174H57.8169H57.8164H57.8159H57.8155H57.815H57.8145H57.814H57.8136H57.8131H57.8126H57.8121H57.8117H57.8112H57.8107H57.8102H57.8097H57.8093H57.8088H57.8083H57.8078H57.8074H57.8069H57.8064H57.806H57.8055H57.805H57.8045H57.8041H57.8036H57.8031H57.8026H57.8022H57.8017H57.8012H57.8007H57.8003H57.7998H57.7993H57.7989H57.7984H57.7979H57.7974H57.797H57.7965H57.796H57.7956H57.7951H57.7946H57.7942H57.7937H57.7932H57.7927H57.7923H57.7918H57.7913H57.7909H57.7904H57.7899H57.7895H57.789H57.7885H57.7881H57.7876H57.7871H57.7867H57.7862H57.7857H57.7853H57.7848H57.7844H57.7839H57.7834H57.783H57.7825H57.782H57.7816H57.7811H57.7806H57.7802H57.7797H57.7793H57.7788H57.7783H57.7779H57.7774H57.777H57.7765H57.776H57.7756H57.7751H57.7747H57.7742H57.7737H57.7733H57.7728H57.7724H57.7719H57.7715H57.771H57.7705H57.7701H57.7696H57.7692H57.7687H57.7683H57.7678H57.7674H57.7669H57.7665H57.766H57.7656H57.7651H57.7647H57.7642H57.7638H57.7633H57.7629H57.7624H57.762H57.7615H57.7611H57.7606H57.7602H57.7597H57.7593H57.7588H57.7584H57.7579H57.7575H57.757H57.7566H57.7562H57.7557H57.7553H57.7548H57.7544H57.7539H57.7535H57.7531H57.7526H57.7522H57.7517H57.7513H57.7509H57.7504H57.75H57.7495H57.7491H57.7487H57.7482H57.7478H57.7474H57.7469H57.7465H57.746H57.7456H57.7452H57.7447H57.7443H57.7439H57.7434H57.743H57.7426H57.7422H57.7417H57.7413H57.7409H57.7404H57.74H57.7396H57.7392H57.7387H57.7383H57.7379H57.7374H57.737H57.7366H57.7362H57.7358H57.7353H57.7349H57.7345H57.7341H57.7336H57.7332H57.7328H57.7324H57.732H57.7315H57.7311H57.7307H57.7303H57.7299H57.7295H57.729H57.7286H57.7282H57.7278H57.7274H57.727H57.7266C56.4538 117.483 55.3817 118.456 55.257 119.728L55.2562 119.735V119.742V119.743V119.743V119.743V119.744V119.744V119.745V119.745V119.746V119.746V119.746V119.747V119.747V119.748V119.748V119.748V119.749V119.749V119.75V119.75V119.751V119.751V119.751V119.752V119.752V119.753V119.753V119.754V119.754V119.754V119.755V119.755V119.756V119.756V119.756V119.757V119.757V119.758V119.758V119.759V119.759V119.76V119.76V119.76V119.761V119.761V119.762V119.762V119.763V119.763V119.763V119.764V119.764V119.765V119.765V119.766V119.766V119.766V119.767V119.767V119.768V119.768V119.769V119.769V119.77V119.77V119.77V119.771V119.771V119.772V119.772V119.773V119.773V119.774V119.774V119.774V119.775V119.775V119.776V119.776V119.777V119.777V119.778V119.778V119.778V119.779V119.779V119.78V119.78V119.781V119.781V119.782V119.782V119.783V119.783V119.783V119.784V119.784V119.785V119.785V119.786V119.786V119.787V119.787V119.788V119.788V119.788V119.789V119.789V119.79V119.79V119.791V119.791V119.792V119.792V119.793V119.793V119.794V119.794V119.794V119.795V119.795V119.796V119.796V119.797V119.797V119.798V119.798V119.799V119.799V119.8V119.8V119.8V119.801V119.801V119.802V119.802V119.803V119.803V119.804V119.804V119.805V119.805V119.806V119.806V119.807V119.807V119.807V119.808V119.808V119.809V119.809V119.81V119.81V119.811V119.811V119.812V119.812V119.813V119.813V119.814V119.814V119.814V119.815V119.815V119.816V119.816V119.817V119.817V119.818V119.818V119.819V119.819V119.82V119.82V119.821V119.821V119.822V119.822V119.823V119.823V119.823V119.824V119.824V119.825V119.825V119.826V119.826V119.827V119.827V119.828V119.828V119.829V119.829V119.83V119.83V119.831V119.831V119.832V119.832V119.833V119.833V119.833V119.834V119.834V119.835V119.835V119.836V119.836V119.837V119.837V119.838V119.838V119.839V119.839V119.84V119.84V119.841V119.841V119.842V119.842V119.843V119.843V119.844V119.844V119.844V119.845V119.845V119.846V119.846V119.847V119.847V119.848V119.848V119.849V119.849V119.85V119.85V119.851V119.851V119.852V119.852V119.853V119.853V119.854V119.854V119.855V119.855V119.856V119.856V119.856V119.857V119.857V119.858V119.858V119.859V119.859V119.86V119.86V119.861V119.861V119.862V119.862V119.863V119.863V119.864V119.864V119.865V119.865V119.866V119.866V119.867V119.867V119.868V119.868V119.869V119.869V119.869V119.87V119.87V119.871V119.871V119.872V119.872V119.873V119.873V119.874V119.874V119.875V119.875V119.876V119.876V119.877V119.877V119.878V119.878V119.879V119.879V119.88V119.88V119.88V119.881V119.881V119.882V119.882V119.883V119.883V119.884V119.884V119.885V119.885V119.886V119.886V119.887V119.887V119.888V119.888V119.889V119.889V119.89V119.89V119.891V119.891V119.891V119.892V119.892V119.893V119.893V119.894V119.894V119.895V119.895V119.896V119.896V119.897V119.897V119.898V119.898V119.899V119.899V119.9V119.9V119.9V119.901V119.901V119.902V119.902V119.903V119.903V119.904V119.904V119.905V119.905V119.906V119.906V119.907V119.907V119.908V119.908V119.908V119.909V119.909V119.91V119.91V119.911V119.911V119.912V119.912V119.913V119.913V119.914V119.914V119.915V119.915V119.916V119.916V119.916V119.917V119.917V119.918V119.918V119.919V119.919V119.92V119.92V119.921V119.921V119.922V119.922V119.922V119.923V119.923V119.924V119.924V119.925V119.925V119.926V119.926V119.927V119.927V119.928V119.928V119.928V119.929V119.929V119.93V119.93V119.931V119.931V119.932V119.932V119.933V119.933V119.933V119.934V119.934V119.935V119.935V119.936V119.936V119.937V119.937V119.938V119.938V119.938V119.939V119.939V119.94V119.94V119.941V119.941V119.942V119.942V119.943V119.943V119.943V119.944V119.944V119.945V119.945V119.946V119.946V119.947V119.947V119.947V119.948V119.948V119.949V119.949V119.95V119.95V119.951V119.951V119.951V119.952V119.952V119.953V119.953V119.954V119.954V119.954V119.955V119.955V119.956V119.956V119.957V119.957V119.958V119.958V119.958V119.959V119.959V119.96V119.96V119.961V119.961V119.961V119.962V119.962V119.963V119.963V119.964V119.964V119.964V119.965V119.965V119.966V119.966V119.967V119.967V119.967V119.968V119.968V119.969V119.969V119.969V119.97V119.97V119.971V119.971V119.972V119.972V119.972V119.973V119.973V119.974V119.974V119.974V119.975V119.975V119.976V119.976V119.977C55.2562 121.247 56.2273 122.345 57.501 122.47L57.6656 122.486ZM59.7422 113.353C61.1141 113.353 62.2359 112.231 62.2359 110.859C62.2359 109.487 61.1141 108.366 59.7422 108.366C58.3703 108.366 57.2484 109.487 57.2484 110.859C57.2484 112.231 58.3703 113.353 59.7422 113.353Z" fill="#F8F8FF" stroke="#F8F8FF" stroke-width="0.3"/>
<path id="Vector_5" d="M61.7109 104.259C63.0882 104.259 64.2047 103.143 64.2047 101.766C64.2047 100.388 63.0882 99.2719 61.7109 99.2719C60.3337 99.2719 59.2172 100.388 59.2172 101.766C59.2172 103.143 60.3337 104.259 61.7109 104.259Z" fill="#F8F8FF" stroke="#F8F8FF" stroke-width="0.3"/>
<path id="Vector_6" d="M94.2422 131.564C95.6194 131.564 96.7359 130.448 96.7359 129.07C96.7359 127.693 95.6194 126.577 94.2422 126.577C92.8649 126.577 91.7484 127.693 91.7484 129.07C91.7484 130.448 92.8649 131.564 94.2422 131.564Z" fill="#F8F8FF" stroke="#F8F8FF" stroke-width="0.3"/>
<path id="Vector_7" d="M92.25 122.47C93.6273 122.47 94.7438 121.354 94.7438 119.977C94.7438 118.599 93.6273 117.483 92.25 117.483C90.8727 117.483 89.7562 118.599 89.7562 119.977C89.7562 121.354 90.8727 122.47 92.25 122.47Z" fill="#F8F8FF" stroke="#F8F8FF" stroke-width="0.3"/>
<path id="Vector_8" d="M90.2578 113.353C91.6351 113.353 92.7516 112.237 92.7516 110.859C92.7516 109.482 91.6351 108.366 90.2578 108.366C88.8806 108.366 87.7641 109.482 87.7641 110.859C87.7641 112.237 88.8806 113.353 90.2578 113.353Z" fill="#F8F8FF" stroke="#F8F8FF" stroke-width="0.3"/>
<path id="Vector_9" d="M88.2891 104.259C89.6663 104.259 90.7828 103.143 90.7828 101.766C90.7828 100.388 89.6663 99.2719 88.2891 99.2719C86.9118 99.2719 85.7953 100.388 85.7953 101.766C85.7953 103.143 86.9118 104.259 88.2891 104.259Z" fill="#F8F8FF" stroke="#F8F8FF" stroke-width="0.3"/>
<path id="Vector_10" d="M132.117 115.842H132.099L132.082 115.846C130.737 116.17 129.913 117.492 130.237 118.84C130.561 120.185 131.883 121.009 133.23 120.685C134.575 120.361 135.398 119.039 135.099 117.694L135.1 117.694L135.099 117.691C134.777 116.352 133.464 115.529 132.123 115.842H132.117ZM124.752 110.376L124.752 110.376L124.753 110.379C125.076 111.724 126.399 112.548 127.746 112.224C129.091 111.9 129.914 110.579 129.615 109.233L129.615 109.233L129.615 109.23C129.291 107.886 127.969 107.061 126.622 107.385C125.274 107.686 124.454 109.033 124.752 110.376ZM121.411 98.8746C120.038 99.0493 119.091 100.298 119.265 101.667C119.44 103.04 120.688 103.987 122.058 103.813C123.431 103.638 124.378 102.39 124.203 101.02C124.029 99.6473 122.78 98.7002 121.411 98.8746Z" fill="#F8F8FF" stroke="#F8F8FF" stroke-width="0.3"/>
</g>
</svg>
