<svg width="80" height="80" viewBox="0 0 80 80" fill="none" xmlns="http://www.w3.org/2000/svg">
<g id="Innovation">
<path id="Vector" d="M68.8 38.4H65.6C65.1757 38.4 64.7687 38.2314 64.4686 37.9313C64.1686 37.6313 64 37.2243 64 36.8C64 36.3756 64.1686 35.9686 64.4686 35.6686C64.7687 35.3685 65.1757 35.2 65.6 35.2H68.8C69.2243 35.2 69.6313 35.3685 69.9314 35.6686C70.2314 35.9686 70.4 36.3756 70.4 36.8C70.4 37.2243 70.2314 37.6313 69.9314 37.9313C69.6313 38.2314 69.2243 38.4 68.8 38.4Z" fill="#F8F8FF"/>
<path id="Vector_2" d="M39.9999 17.6V65.6H33.3759C32.5848 65.6048 31.82 65.3164 31.2291 64.7905C30.6381 64.2645 30.2629 63.5383 30.1759 62.752C29.7944 58.0795 28.2667 53.5732 25.7279 49.632H25.5999C22.4188 46.129 20.6612 41.5639 20.6719 36.832C20.6676 34.2972 21.1654 31.7865 22.1364 29.445C23.1073 27.1034 24.5324 24.9774 26.3293 23.1894C28.1262 21.4014 30.2593 19.987 32.6057 19.0277C34.952 18.0683 37.4651 17.5831 39.9999 17.6Z" fill="#F8F8FF"/>
<path id="Vector_3" d="M40 17.6001C45.0922 17.6001 49.9758 19.6229 53.5765 23.2236C57.1772 26.8243 59.2 31.7079 59.2 36.8001C59.2107 41.532 57.4531 46.0971 54.272 49.6001C51.7109 53.5447 50.1714 58.0644 49.792 62.7521C49.705 63.5384 49.3298 64.2646 48.7389 64.7906C48.1479 65.3165 47.3831 65.6049 46.592 65.6001H40V17.6001Z" fill="#00B050"/>
<path id="Vector_4" d="M46.6236 67.2H33.3756C32.1969 67.1998 31.0596 66.7659 30.1803 65.981C29.301 65.1961 28.7412 64.1151 28.6076 62.944C28.2682 58.5746 26.8617 54.3552 24.5116 50.656C21.8253 47.6663 20.0628 43.9623 19.4371 39.992C18.8115 36.0217 19.3496 31.9552 20.9863 28.2843C22.623 24.6133 25.2883 21.4952 28.6597 19.307C32.0311 17.1189 35.9643 15.9543 39.9836 15.9543C44.0029 15.9543 47.9361 17.1189 51.3075 19.307C54.679 21.4952 57.3442 24.6133 58.9809 28.2843C60.6176 31.9552 61.1557 36.0217 60.5301 39.992C59.9044 43.9623 58.1419 47.6663 55.4556 50.656C53.1219 54.3372 51.7265 58.5344 51.3916 62.88C51.2727 64.0627 50.7194 65.1591 49.8385 65.9572C48.9577 66.7552 47.8122 67.1981 46.6236 67.2ZM26.8796 48.512L27.0716 48.704C29.7559 52.8795 31.3815 57.6465 31.8076 62.592C31.8474 62.9796 32.0299 63.3384 32.3198 63.5987C32.6097 63.859 32.986 64.0021 33.3756 64H46.6236C47.0182 64.0014 47.3988 63.8538 47.6894 63.5869C47.9801 63.32 48.1594 62.9533 48.1916 62.56C48.6096 57.6031 50.2596 52.8292 52.9916 48.672C55.2907 46.1598 56.8116 43.0346 57.3698 39.6752C57.9281 36.3158 57.4998 32.8666 56.1368 29.7458C54.7738 26.6251 52.5347 23.9667 49.691 22.0931C46.8473 20.2195 43.5211 19.2112 40.1158 19.1903C36.7104 19.1694 33.3721 20.1369 30.5056 21.9756C27.6392 23.8142 25.3677 26.4449 23.9666 29.5487C22.5655 32.6526 22.0949 36.0963 22.612 39.4622C23.129 42.8282 24.6115 45.9718 26.8796 48.512Z" fill="#F8F8FF"/>
<path id="Vector_5" d="M52.7996 35.1999C52.5995 35.2452 52.3917 35.2452 52.1916 35.1999C51.9919 35.1317 51.8148 35.0099 51.6796 34.8479C51.5265 34.7043 51.4046 34.5308 51.3212 34.3381C51.2378 34.1455 51.1947 33.9378 51.1947 33.7279C51.1947 33.518 51.2378 33.3103 51.3212 33.1177C51.4046 32.925 51.5265 32.7515 51.6796 32.6079C51.8148 32.4459 51.9919 32.3241 52.1916 32.2559C52.4817 32.1345 52.8016 32.1032 53.1098 32.166C53.4179 32.2287 53.7001 32.3827 53.9196 32.6079C54.0733 32.7508 54.1954 32.9242 54.2781 33.1171C54.3608 33.31 54.4022 33.5181 54.3996 33.7279C54.4472 33.9278 54.4472 34.136 54.3996 34.3359C54.3314 34.5356 54.2096 34.7127 54.0476 34.8479C53.879 34.9959 53.6794 35.1044 53.4635 35.1653C53.2475 35.2262 53.0207 35.238 52.7996 35.1999ZM50.4636 31.0399C50.2066 31.044 49.9525 30.9849 49.7237 30.8677C49.4949 30.7505 49.2985 30.5789 49.1516 30.3679C47.5195 28.0335 45.0593 26.4086 42.2716 25.8239C42.0657 25.7819 41.87 25.6998 41.6959 25.5822C41.5217 25.4645 41.3724 25.3138 41.2565 25.1384C41.1406 24.9631 41.0604 24.7667 41.0204 24.5603C40.9805 24.354 40.9815 24.1418 41.0236 23.9359C41.1159 23.5242 41.3641 23.1642 41.7161 22.9315C42.0682 22.6988 42.4966 22.6115 42.9116 22.6879C46.5111 23.4234 49.687 25.5216 51.7756 28.5439C51.896 28.7153 51.9809 28.909 52.0252 29.1137C52.0695 29.3184 52.0723 29.5299 52.0335 29.7357C51.9948 29.9415 51.9152 30.1375 51.7994 30.312C51.6837 30.4865 51.5341 30.6361 51.3596 30.7519C51.0994 30.9413 50.7854 31.0422 50.4636 31.0399ZM46.3996 73.5999H33.5996C33.1753 73.5999 32.7683 73.4313 32.4682 73.1313C32.1682 72.8312 31.9996 72.4242 31.9996 71.9999C31.9996 71.5756 32.1682 71.1686 32.4682 70.8685C32.7683 70.5685 33.1753 70.3999 33.5996 70.3999H46.3996C46.824 70.3999 47.2309 70.5685 47.531 70.8685C47.831 71.1686 47.9996 71.5756 47.9996 71.9999C47.9996 72.4242 47.831 72.8312 47.531 73.1313C47.2309 73.4313 46.824 73.5999 46.3996 73.5999ZM39.9996 12.7999C39.5753 12.7999 39.1683 12.6313 38.8682 12.3313C38.5682 12.0312 38.3996 11.6242 38.3996 11.1999V7.9999C38.3996 7.57556 38.5682 7.16859 38.8682 6.86853C39.1683 6.56847 39.5753 6.3999 39.9996 6.3999C40.424 6.3999 40.8309 6.56847 41.131 6.86853C41.431 7.16859 41.5996 7.57556 41.5996 7.9999V11.1999C41.5996 11.6242 41.431 12.0312 41.131 12.3313C40.8309 12.6313 40.424 12.7999 39.9996 12.7999ZM58.1116 20.2879C57.9018 20.2905 57.6937 20.2491 57.5008 20.1664C57.3079 20.0837 57.1345 19.9616 56.9916 19.8079C56.8385 19.6643 56.7166 19.4908 56.6332 19.2981C56.5498 19.1055 56.5067 18.8978 56.5067 18.6879C56.5067 18.478 56.5498 18.2703 56.6332 18.0777C56.7166 17.885 56.8385 17.7115 56.9916 17.5679L59.2316 15.3279C59.5286 15.0309 59.9315 14.864 60.3516 14.864C60.7717 14.864 61.1746 15.0309 61.4716 15.3279C61.7686 15.6249 61.9355 16.0278 61.9355 16.4479C61.9355 16.868 61.7686 17.2709 61.4716 17.5679L59.2316 19.8079C59.0887 19.9616 58.9153 20.0837 58.7224 20.1664C58.5295 20.2491 58.3214 20.2905 58.1116 20.2879ZM60.3516 58.7519C60.1418 58.7545 59.9337 58.7131 59.7408 58.6304C59.5479 58.5477 59.3745 58.4256 59.2316 58.2719L56.9916 56.0319C56.6946 55.7349 56.5277 55.332 56.5277 54.9119C56.5277 54.4918 56.6946 54.0889 56.9916 53.7919C57.2886 53.4949 57.6915 53.328 58.1116 53.328C58.5317 53.328 58.9346 53.4949 59.2316 53.7919L61.4716 56.0319C61.6247 56.1755 61.7467 56.349 61.8301 56.5417C61.9134 56.7343 61.9565 56.942 61.9565 57.1519C61.9565 57.3618 61.9134 57.5695 61.8301 57.7621C61.7467 57.9548 61.6247 58.1282 61.4716 58.2719C61.3287 58.4256 61.1553 58.5477 60.9624 58.6304C60.7695 58.7131 60.5615 58.7545 60.3516 58.7519ZM19.6476 58.7519C19.4378 58.7545 19.2297 58.7131 19.0368 58.6304C18.8439 58.5477 18.6705 58.4256 18.5276 58.2719C18.3745 58.1282 18.2526 57.9548 18.1692 57.7621C18.0858 57.5695 18.0427 57.3618 18.0427 57.1519C18.0427 56.942 18.0858 56.7343 18.1692 56.5417C18.2526 56.349 18.3745 56.1755 18.5276 56.0319L20.7676 53.7919C21.0647 53.4949 21.4675 53.328 21.8876 53.328C22.3077 53.328 22.7106 53.4949 23.0076 53.7919C23.3047 54.0889 23.4715 54.4918 23.4715 54.9119C23.4715 55.332 23.3047 55.7349 23.0076 56.0319L20.7676 58.2719C20.6247 58.4256 20.4513 58.5477 20.2584 58.6304C20.0655 58.7131 19.8575 58.7545 19.6476 58.7519ZM14.3996 38.3999H11.1996C10.7753 38.3999 10.3683 38.2313 10.0682 37.9313C9.76818 37.6312 9.59961 37.2242 9.59961 36.7999C9.59961 36.3756 9.76818 35.9686 10.0682 35.6685C10.3683 35.3685 10.7753 35.1999 11.1996 35.1999H14.3996C14.824 35.1999 15.2309 35.3685 15.531 35.6685C15.831 35.9686 15.9996 36.3756 15.9996 36.7999C15.9996 37.2242 15.831 37.6312 15.531 37.9313C15.2309 38.2313 14.824 38.3999 14.3996 38.3999ZM21.8876 20.2879C21.6778 20.2905 21.4697 20.2491 21.2768 20.1664C21.0839 20.0837 20.9105 19.9616 20.7676 19.8079L18.5276 17.5679C18.2306 17.2709 18.0637 16.868 18.0637 16.4479C18.0637 16.0278 18.2306 15.6249 18.5276 15.3279C18.8247 15.0309 19.2275 14.864 19.6476 14.864C20.0677 14.864 20.4706 15.0309 20.7676 15.3279L23.0076 17.5679C23.1607 17.7115 23.2827 17.885 23.3661 18.0777C23.4494 18.2703 23.4925 18.478 23.4925 18.6879C23.4925 18.8978 23.4494 19.1055 23.3661 19.2981C23.2827 19.4908 23.1607 19.6643 23.0076 19.8079C22.8647 19.9616 22.6913 20.0837 22.4984 20.1664C22.3055 20.2491 22.0975 20.2905 21.8876 20.2879Z" fill="#F8F8FF"/>
</g>
</svg>
