<svg width="150" height="150" viewBox="0 0 150 150" fill="none" xmlns="http://www.w3.org/2000/svg">
<g id="Sewage">
<path id="Vector" d="M115.523 109.266C112.35 109.264 109.229 108.458 106.453 106.922L100.406 103.547C98.2751 102.392 95.8854 101.799 93.462 101.824C91.0386 101.849 88.6614 102.49 86.5544 103.687L81.8669 106.406C78.9377 108.094 75.6092 108.965 72.2287 108.928C68.8482 108.89 65.5396 107.947 62.6482 106.195L59.32 104.109C57.1523 102.83 54.687 102.141 52.1701 102.113C49.6531 102.084 47.1727 102.716 44.9763 103.945L41.4372 106.031C38.3589 107.819 34.8353 108.693 31.2784 108.552C27.7215 108.411 24.2783 107.26 21.3513 105.234C19.0875 103.682 16.4188 102.825 13.6742 102.771C10.9296 102.717 8.2292 103.467 5.90597 104.93C5.64782 105.1 5.35847 105.218 5.05459 105.276C4.75072 105.334 4.43835 105.332 4.13549 105.268C3.83262 105.205 3.54527 105.083 3.28999 104.908C3.03472 104.733 2.81658 104.509 2.64815 104.25C2.31117 103.73 2.1935 103.099 2.32086 102.493C2.44821 101.886 2.81024 101.355 3.32784 101.016C6.45265 99.0546 10.0816 98.0479 13.7701 98.1186C17.4585 98.1894 21.0462 99.3346 24.0935 101.414C26.2869 102.898 28.8517 103.74 31.4982 103.843C34.1446 103.947 36.7673 103.308 39.07 102L42.5857 99.914C45.5186 98.2345 48.8475 97.3706 52.227 97.4118C55.6064 97.453 58.9133 98.3979 61.8044 100.148L65.1325 102.211C67.2962 103.502 69.763 104.197 72.2823 104.226C74.8016 104.254 77.2837 103.616 79.4763 102.375L84.1638 99.6562C86.9716 98.0324 90.1506 97.16 93.3939 97.123C96.6372 97.0861 99.8353 97.8859 102.679 99.4452L108.703 102.844C110.814 103.992 113.179 104.594 115.582 104.594C117.985 104.594 120.35 103.992 122.461 102.844L127.851 99.703C130.698 98.1229 133.9 97.2937 137.156 97.2937C140.412 97.2937 143.614 98.1229 146.461 99.703C146.728 99.8569 146.963 100.062 147.152 100.307C147.34 100.551 147.479 100.831 147.559 101.129C147.64 101.427 147.661 101.738 147.621 102.044C147.581 102.351 147.482 102.646 147.328 102.914C147.174 103.182 146.969 103.417 146.724 103.605C146.48 103.794 146.2 103.932 145.902 104.013C145.604 104.093 145.293 104.114 144.986 104.074C144.68 104.035 144.385 103.935 144.117 103.781C141.996 102.573 139.597 101.937 137.156 101.937C134.715 101.937 132.316 102.573 130.195 103.781L124.828 106.898C121.984 108.482 118.778 109.297 115.523 109.266ZM115.523 124.219C112.35 124.217 109.229 123.411 106.453 121.875L100.406 118.476C98.2718 117.333 95.8834 116.746 93.4622 116.77C91.0409 116.795 88.665 117.43 86.5544 118.617L81.8669 121.359C78.934 123.039 75.6051 123.903 72.2256 123.861C68.8461 123.82 65.5392 122.875 62.6482 121.125L59.32 119.062C57.1564 117.772 54.6896 117.076 52.1703 117.048C49.651 117.019 47.1689 117.657 44.9763 118.898L41.4372 120.984C38.3567 122.768 34.8319 123.639 31.275 123.493C27.7181 123.348 24.2761 122.193 21.3513 120.164C19.0852 118.615 16.4153 117.763 13.6707 117.713C10.9261 117.663 8.22693 118.417 5.90597 119.883C5.64743 120.052 5.35808 120.169 5.05443 120.226C4.75079 120.284 4.43881 120.281 4.13629 120.218C3.52533 120.09 2.99003 119.725 2.64815 119.203C2.30627 118.681 2.18582 118.044 2.31328 117.433C2.44075 116.822 2.8057 116.287 3.32784 115.945C6.45389 113.985 10.0845 112.98 13.7737 113.055C17.4628 113.13 21.0496 114.281 24.0935 116.367C26.289 117.846 28.8532 118.685 31.4985 118.788C34.1438 118.892 36.7656 118.256 39.07 116.953L42.656 114.844C45.5852 113.156 48.9137 112.285 52.2942 112.322C55.6746 112.359 58.9832 113.303 61.8747 115.055L65.2028 117.141C67.3681 118.427 69.8343 119.119 72.3527 119.148C74.871 119.177 77.3524 118.541 79.5466 117.305L84.2341 114.562C87.0374 112.936 90.2145 112.063 93.4555 112.03C96.6964 111.997 99.8906 112.805 102.726 114.375L108.773 117.75C110.883 118.903 113.248 119.507 115.652 119.507C118.056 119.507 120.421 118.903 122.531 117.75L127.922 114.633C130.765 113.042 133.968 112.206 137.226 112.206C140.484 112.206 143.688 113.042 146.531 114.633C147.041 114.957 147.406 115.466 147.55 116.053C147.694 116.64 147.605 117.26 147.303 117.784C147 118.307 146.507 118.693 145.927 118.862C145.346 119.03 144.723 118.968 144.187 118.687C142.059 117.501 139.663 116.878 137.226 116.878C134.79 116.878 132.394 117.501 130.265 118.687L124.898 121.805C122.038 123.416 118.806 124.248 115.523 124.219ZM115.523 139.101C112.35 139.1 109.229 138.294 106.453 136.758L100.406 133.383C98.2751 132.228 95.8854 131.635 93.462 131.66C91.0386 131.685 88.6614 132.326 86.5544 133.523L81.8669 136.242C78.9377 137.93 75.6092 138.801 72.2287 138.763C68.8482 138.726 65.5396 137.783 62.6482 136.031L59.32 133.945C57.1547 132.659 54.6885 131.967 52.1702 131.938C49.6518 131.909 47.1704 132.545 44.9763 133.781L41.5075 135.937C38.4292 137.725 34.9056 138.599 31.3487 138.458C27.7919 138.317 24.3486 137.166 21.4216 135.141C19.1578 133.588 16.4891 132.731 13.7445 132.677C10.9999 132.623 8.29951 133.374 5.97628 134.836C5.71813 135.006 5.42878 135.124 5.12491 135.182C4.82104 135.24 4.50866 135.238 4.2058 135.175C3.90294 135.111 3.61558 134.989 3.36031 134.814C3.10503 134.639 2.88689 134.416 2.71847 134.156C2.38148 133.637 2.26382 133.005 2.39117 132.399C2.51853 131.793 2.88055 131.262 3.39815 130.922C6.5209 128.955 10.1508 127.945 13.8405 128.016C17.5303 128.086 21.1188 129.235 24.1638 131.32C26.3593 132.799 28.9235 133.638 31.5688 133.741C34.2141 133.845 36.836 133.209 39.1403 131.906L42.656 129.82C45.5889 128.141 48.9178 127.277 52.2973 127.318C55.6768 127.359 58.9836 128.304 61.8747 130.055L65.2028 132.117C67.3665 133.408 69.8333 134.103 72.3526 134.132C74.8719 134.161 77.354 133.522 79.5466 132.281L84.2341 129.562C87.0353 127.932 90.2114 127.055 93.4524 127.018C96.6934 126.981 99.8886 127.785 102.726 129.351L108.773 132.75C110.884 133.899 113.249 134.5 115.652 134.5C118.055 134.5 120.42 133.899 122.531 132.75L127.922 129.609C130.768 128.029 133.97 127.2 137.226 127.2C140.482 127.2 143.684 128.029 146.531 129.609C146.8 129.762 147.035 129.967 147.224 130.212C147.413 130.456 147.552 130.736 147.633 131.034C147.713 131.333 147.734 131.644 147.694 131.951C147.654 132.257 147.553 132.553 147.398 132.82C147.237 133.087 147.025 133.32 146.773 133.504C146.521 133.688 146.235 133.819 145.932 133.891C145.628 133.963 145.314 133.974 145.006 133.923C144.698 133.872 144.404 133.76 144.14 133.594C142.012 132.407 139.616 131.785 137.179 131.785C134.743 131.785 132.347 132.407 130.218 133.594L124.851 136.734C122.001 138.321 118.786 139.137 115.523 139.101ZM94.9685 66.539C94.5729 66.5402 94.1843 66.435 93.8435 66.2343C93.3056 65.9331 92.9081 65.4321 92.737 64.8398C92.5659 64.2476 92.635 63.6118 92.9294 63.0702C94.9267 59.4684 95.9517 55.4085 95.9035 51.2902C95.8554 47.172 94.7356 43.1372 92.6546 39.5831C90.5736 36.0289 87.603 33.0779 84.0351 31.0205C80.4673 28.9631 76.4252 27.8702 72.3067 27.8493C68.1882 27.8284 64.1352 28.8803 60.5467 30.9014C56.9582 32.9226 53.9578 35.8433 51.8408 39.3761C49.7238 42.909 48.5633 46.9322 48.4733 51.0497C48.3834 55.1673 49.3672 59.2374 51.3278 62.8593C51.4817 63.1286 51.5811 63.4256 51.6202 63.7333C51.6593 64.041 51.6374 64.3534 51.5558 64.6526C51.4742 64.9519 51.3344 65.2321 51.1445 65.4774C50.9546 65.7226 50.7182 65.928 50.4489 66.0819C50.1796 66.2358 49.8826 66.3352 49.5749 66.3743C49.2672 66.4134 48.9548 66.3915 48.6556 66.3099C48.3563 66.2283 48.0761 66.0885 47.8308 65.8986C47.5856 65.7087 47.3802 65.4723 47.2263 65.203C44.8728 60.8663 43.6895 55.9914 43.7929 51.0583C43.8964 46.1253 45.283 41.3042 47.8161 37.07C50.3493 32.8358 53.9418 29.3344 58.2396 26.9107C62.5375 24.487 67.3925 23.2247 72.3266 23.2479C77.2607 23.2711 82.1037 24.5791 86.3785 27.0431C90.6534 29.5072 94.2127 33.0422 96.7059 37.3001C99.1991 41.558 100.54 46.3918 100.597 51.3257C100.654 56.2595 99.4252 61.123 97.031 65.4374C96.8137 65.7855 96.5088 66.0704 96.1469 66.2637C95.785 66.4571 95.3786 66.552 94.9685 66.539Z" fill="#F8F8FF"/>
<path id="Vector_2" d="M93.9844 85.4296C93.4796 85.4359 92.9864 85.279 92.5779 84.9823C92.1695 84.6856 91.8678 84.265 91.7177 83.7831C91.5676 83.3011 91.5771 82.7836 91.7448 82.3075C91.9125 81.8313 92.2294 81.4221 92.6484 81.1406C98.9566 76.7788 103.706 70.5153 106.203 63.264C108.701 56.0127 108.815 48.1531 106.531 40.832C104.246 33.5108 99.6818 27.1114 93.5036 22.5673C87.3254 18.0232 79.8568 15.5724 72.1875 15.5724C64.5182 15.5724 57.0496 18.0232 50.8714 22.5673C44.6932 27.1114 40.1289 33.5108 37.8443 40.832C35.5597 48.1531 35.6744 56.0127 38.1718 63.264C40.6691 70.5153 45.4184 76.7788 51.7266 81.1406C51.9805 81.316 52.1974 81.5397 52.3648 81.799C52.5323 82.0583 52.647 82.348 52.7025 82.6516C52.758 82.9552 52.7532 83.2667 52.6883 83.5685C52.6234 83.8702 52.4997 84.1562 52.3242 84.4101C52.1488 84.664 51.925 84.8809 51.6658 85.0484C51.4065 85.2158 51.1168 85.3306 50.8132 85.3861C50.5096 85.4416 50.1981 85.4367 49.8963 85.3718C49.5946 85.3069 49.3086 85.1832 49.0547 85.0078C41.926 80.0768 36.5594 72.9969 33.738 64.801C30.9165 56.6051 30.7878 47.7221 33.3706 39.4479C35.9535 31.1737 41.1126 23.9413 48.0955 18.8058C55.0784 13.6704 63.5196 10.9006 72.1875 10.9006C80.8554 10.9006 89.2966 13.6704 96.2795 18.8058C103.262 23.9413 108.422 31.1737 111.004 39.4479C113.587 47.7221 113.458 56.6051 110.637 64.801C107.816 72.9969 102.449 80.0768 95.3203 85.0078C94.9284 85.2813 94.4623 85.4285 93.9844 85.4296Z" fill="#F8F8FF"/>
<path id="Vector_3" d="M63.1406 67.4297C62.519 67.4297 61.9229 67.1828 61.4833 66.7432C61.0438 66.3037 60.7969 65.7075 60.7969 65.0859V27.1406C60.7969 26.519 61.0438 25.9229 61.4833 25.4833C61.9229 25.0438 62.519 24.7969 63.1406 24.7969C63.7622 24.7969 64.3584 25.0438 64.7979 25.4833C65.2374 25.9229 65.4844 26.519 65.4844 27.1406V65.0859C65.4844 65.7075 65.2374 66.3037 64.7979 66.7432C64.3584 67.1828 63.7622 67.4297 63.1406 67.4297ZM81.2344 67.4297C80.6128 67.4297 80.0166 67.1828 79.5771 66.7432C79.1376 66.3037 78.8906 65.7075 78.8906 65.0859V27.1406C78.8906 26.519 79.1376 25.9229 79.5771 25.4833C80.0166 25.0438 80.6128 24.7969 81.2344 24.7969C81.856 24.7969 82.4521 25.0438 82.8917 25.4833C83.3312 25.9229 83.5781 26.519 83.5781 27.1406V65.0859C83.5781 65.7075 83.3312 66.3037 82.8917 66.7432C82.4521 67.1828 81.856 67.4297 81.2344 67.4297Z" fill="#F8F8FF"/>
<path id="Vector_4" d="M96.6328 44.8594H47.7422C47.1206 44.8594 46.5244 44.6124 46.0849 44.1729C45.6454 43.7334 45.3984 43.1372 45.3984 42.5156C45.3984 41.894 45.6454 41.2979 46.0849 40.8583C46.5244 40.4188 47.1206 40.1719 47.7422 40.1719H96.6328C97.2544 40.1719 97.8506 40.4188 98.2901 40.8583C98.7296 41.2979 98.9766 41.894 98.9766 42.5156C98.9766 43.1372 98.7296 43.7334 98.2901 44.1729C97.8506 44.6124 97.2544 44.8594 96.6328 44.8594ZM96.6328 62.9531H47.7422C47.1206 62.9531 46.5244 62.7062 46.0849 62.2667C45.6454 61.8271 45.3984 61.231 45.3984 60.6094C45.3984 59.9878 45.6454 59.3916 46.0849 58.9521C46.5244 58.5126 47.1206 58.2656 47.7422 58.2656H96.6328C97.2544 58.2656 97.8506 58.5126 98.2901 58.9521C98.7296 59.3916 98.9766 59.9878 98.9766 60.6094C98.9766 61.231 98.7296 61.8271 98.2901 62.2667C97.8506 62.7062 97.2544 62.9531 96.6328 62.9531Z" fill="#F8F8FF"/>
<path id="Vector_5" d="M98.2504 102.164C97.7955 102.168 97.3495 102.039 96.9666 101.793C96.5838 101.548 96.2806 101.196 96.0941 100.781C87.7738 78.9843 92.6019 64.1718 92.8129 63.5624C92.8951 63.252 93.0402 62.9617 93.2392 62.7097C93.4382 62.4577 93.6869 62.2492 93.9699 62.0973C94.2528 61.9454 94.564 61.8533 94.884 61.8266C95.204 61.7999 95.5261 61.8393 95.8303 61.9423C96.1345 62.0453 96.4142 62.2097 96.6522 62.4254C96.8902 62.641 97.0813 62.9032 97.2138 63.1958C97.3462 63.4883 97.4171 63.805 97.422 64.1261C97.427 64.4472 97.3659 64.7659 97.2426 65.0624C97.2426 65.2499 92.8129 79.1249 100.477 99.0937C100.586 99.3814 100.638 99.6879 100.629 99.9956C100.619 100.303 100.55 100.606 100.424 100.887C100.297 101.168 100.117 101.421 99.8929 101.632C99.6688 101.843 99.4054 102.008 99.1176 102.117C98.8352 102.195 98.5394 102.211 98.2504 102.164ZM46.1254 102.164C45.8433 102.169 45.5636 102.113 45.3051 102C45.0173 101.891 44.7538 101.726 44.5297 101.515C44.3056 101.304 44.1253 101.051 43.9991 100.77C43.8729 100.489 43.8032 100.186 43.794 99.8784C43.7848 99.5707 43.8364 99.2643 43.9457 98.9765C51.6332 78.8905 47.2269 65.0859 47.1801 64.9452C47.023 64.6459 46.9325 64.316 46.9149 63.9784C46.8972 63.6408 46.9529 63.3034 47.0779 62.9892C47.203 62.6751 47.3945 62.3918 47.6394 62.1587C47.8843 61.9256 48.1766 61.7482 48.4965 61.6387C48.8164 61.5293 49.1562 61.4903 49.4925 61.5245C49.8289 61.5587 50.1538 61.6652 50.4451 61.8368C50.7364 62.0084 50.9871 62.2411 51.1801 62.5187C51.373 62.7963 51.5036 63.1124 51.5629 63.4452C51.7738 64.0546 56.6019 78.8671 48.2816 100.664C48.1131 101.101 47.8177 101.477 47.4334 101.744C47.0491 102.012 46.5935 102.158 46.1254 102.164Z" fill="#F8F8FF"/>
</g>
</svg>
