<svg width="80" height="80" viewBox="0 0 80 80" fill="none" xmlns="http://www.w3.org/2000/svg">
<g id="cost">
<path id="Vector" d="M76.25 60H67.5V8.75C67.4977 6.76159 66.7068 4.85528 65.3007 3.44926C63.8947 2.04324 61.9884 1.25232 60 1.25H20C18.0116 1.25232 16.1053 2.04324 14.6993 3.44926C13.2932 4.85528 12.5023 6.76159 12.5 8.75V26.25C12.5 26.913 12.7634 27.5489 13.2322 28.0178C13.7011 28.4866 14.337 28.75 15 28.75C15.663 28.75 16.2989 28.4866 16.7678 28.0178C17.2366 27.5489 17.5 26.913 17.5 26.25V8.75C17.5007 8.08716 17.7643 7.45166 18.233 6.98296C18.7017 6.51427 19.3372 6.25066 20 6.25H60C60.6628 6.25066 61.2983 6.51427 61.767 6.98296C62.2357 7.45166 62.4993 8.08716 62.5 8.75V60H42.5C41.837 60 41.2011 60.2634 40.7322 60.7322C40.2634 61.2011 40 61.837 40 62.5C39.9967 65.4827 38.8104 68.3422 36.7013 70.4513C34.5922 72.5604 31.7327 73.7467 28.75 73.75C27.2152 73.7567 25.6956 73.4464 24.2863 72.8386C22.877 72.2307 21.6084 71.3384 20.56 70.2175C20.1029 69.7445 19.4779 69.4706 18.8203 69.4553C18.1627 69.44 17.5255 69.6845 17.047 70.1357C16.5684 70.587 16.287 71.2087 16.2637 71.8661C16.2404 72.5234 16.4771 73.1635 16.9225 73.6475C18.4447 75.2559 20.2782 76.5377 22.3116 77.4149C24.3449 78.2921 26.5355 78.7464 28.75 78.75H62.5C66.8082 78.745 70.9386 77.0314 73.985 73.985C77.0314 70.9386 78.745 66.8082 78.75 62.5C78.75 61.837 78.4866 61.2011 78.0178 60.7322C77.5489 60.2634 76.913 60 76.25 60ZM62.5 73.75H40.4663C42.7786 71.3491 44.2945 68.2936 44.8075 65H73.47C72.9002 67.484 71.5052 69.7014 69.5129 71.2906C67.5206 72.8797 65.0485 73.7467 62.5 73.75ZM58.75 45C58.75 45.663 58.4866 46.2989 58.0178 46.7678C57.5489 47.2366 56.913 47.5 56.25 47.5H51.25C50.587 47.5 49.9511 47.2366 49.4822 46.7678C49.0134 46.2989 48.75 45.663 48.75 45C48.75 44.337 49.0134 43.7011 49.4822 43.2322C49.9511 42.7634 50.587 42.5 51.25 42.5H56.25C56.913 42.5 57.5489 42.7634 58.0178 43.2322C58.4866 43.7011 58.75 44.337 58.75 45ZM40 42.5H43.75C44.413 42.5 45.0489 42.7634 45.5178 43.2322C45.9866 43.7011 46.25 44.337 46.25 45C46.25 45.663 45.9866 46.2989 45.5178 46.7678C45.0489 47.2366 44.413 47.5 43.75 47.5H40C39.337 47.5 38.7011 47.2366 38.2322 46.7678C37.7634 46.2989 37.5 45.663 37.5 45C37.5 44.337 37.7634 43.7011 38.2322 43.2322C38.7011 42.7634 39.337 42.5 40 42.5ZM40 50C40.663 50 41.2989 50.2634 41.7678 50.7322C42.2366 51.2011 42.5 51.837 42.5 52.5C42.5 53.163 42.2366 53.7989 41.7678 54.2678C41.2989 54.7366 40.663 55 40 55H37.5C36.837 55 36.2011 54.7366 35.7322 54.2678C35.2634 53.7989 35 53.163 35 52.5C35 51.837 35.2634 51.2011 35.7322 50.7322C36.2011 50.2634 36.837 50 37.5 50H40ZM58.75 52.5C58.75 53.163 58.4866 53.7989 58.0178 54.2678C57.5489 54.7366 56.913 55 56.25 55H47.5C46.837 55 46.2011 54.7366 45.7322 54.2678C45.2634 53.7989 45 53.163 45 52.5C45 51.837 45.2634 51.2011 45.7322 50.7322C46.2011 50.2634 46.837 50 47.5 50H56.25C56.913 50 57.5489 50.2634 58.0178 50.7322C58.4866 51.2011 58.75 51.837 58.75 52.5ZM48.75 27.5H56.25C56.913 27.5 57.5489 27.7634 58.0178 28.2322C58.4866 28.7011 58.75 29.337 58.75 30C58.75 30.663 58.4866 31.2989 58.0178 31.7678C57.5489 32.2366 56.913 32.5 56.25 32.5H48.75C48.087 32.5 47.4511 32.2366 46.9822 31.7678C46.5134 31.2989 46.25 30.663 46.25 30C46.25 29.337 46.5134 28.7011 46.9822 28.2322C47.4511 27.7634 48.087 27.5 48.75 27.5ZM45 35H56.25C56.913 35 57.5489 35.2634 58.0178 35.7322C58.4866 36.2011 58.75 36.837 58.75 37.5C58.75 38.163 58.4866 38.7989 58.0178 39.2678C57.5489 39.7366 56.913 40 56.25 40H45C44.337 40 43.7011 39.7366 43.2322 39.2678C42.7634 38.7989 42.5 38.163 42.5 37.5C42.5 36.837 42.7634 36.2011 43.2322 35.7322C43.7011 35.2634 44.337 35 45 35ZM51.25 17.5C50.587 17.5 49.9511 17.2366 49.4822 16.7678C49.0134 16.2989 48.75 15.663 48.75 15C48.75 14.337 49.0134 13.7011 49.4822 13.2322C49.9511 12.7634 50.587 12.5 51.25 12.5H56.25C56.913 12.5 57.5489 12.7634 58.0178 13.2322C58.4866 13.7011 58.75 14.337 58.75 15C58.75 15.663 58.4866 16.2989 58.0178 16.7678C57.5489 17.2366 56.913 17.5 56.25 17.5H51.25ZM50 20H56.25C56.913 20 57.5489 20.2634 58.0178 20.7322C58.4866 21.2011 58.75 21.837 58.75 22.5C58.75 23.163 58.4866 23.7989 58.0178 24.2678C57.5489 24.7366 56.913 25 56.25 25H50C49.337 25 48.7011 24.7366 48.2322 24.2678C47.7634 23.7989 47.5 23.163 47.5 22.5C47.5 21.837 47.7634 21.2011 48.2322 20.7322C48.7011 20.2634 49.337 20 50 20Z" fill="#F8F8FF"/>
<path id="Vector_2" d="M17.5 66.25C17.8767 66.2497 18.2485 66.1642 18.5875 66C28.9338 61 33.75 53.28 33.75 41.705C33.7499 41.0977 33.5287 40.5112 33.1277 40.055C32.7268 39.5989 32.1735 39.3043 31.5713 39.2262C25.5588 38.4475 23.2638 36.7762 19.4237 32.1537C19.1811 31.884 18.8844 31.6683 18.553 31.5206C18.2216 31.373 17.8628 31.2967 17.5 31.2967C17.1372 31.2967 16.7784 31.373 16.447 31.5206C16.1156 31.6683 15.8189 31.884 15.5763 32.1537C11.7375 36.775 9.4425 38.4462 3.42875 39.225C2.82647 39.303 2.2732 39.5976 1.87226 40.0538C1.47132 40.5099 1.25013 41.0964 1.25 41.7038C1.25 53.2787 6.0675 60.9987 16.4125 66.0012C16.7516 66.165 17.1234 66.2501 17.5 66.25ZM6.31625 43.825C10.6694 43.1231 14.6324 40.8996 17.5 37.55C20.3676 40.8996 24.3306 43.1231 28.6838 43.825C28.1713 51.7913 24.6525 57.1625 17.5 60.9487C10.3475 57.1625 6.83 51.7913 6.31625 43.825ZM18.0175 54.2675C17.5487 54.7362 16.9129 54.9995 16.25 54.9995C15.5871 54.9995 14.9513 54.7362 14.4825 54.2675L10.7325 50.5175C10.2771 50.046 10.0251 49.4145 10.0308 48.759C10.0365 48.1035 10.2994 47.4765 10.763 47.013C11.2265 46.5494 11.8535 46.2865 12.509 46.2808C13.1645 46.2751 13.796 46.5271 14.2675 46.9825L16.25 48.965L20.7325 44.4825C21.204 44.0271 21.8355 43.7751 22.491 43.7808C23.1465 43.7865 23.7735 44.0494 24.237 44.513C24.7006 44.9765 24.9635 45.6035 24.9692 46.259C24.9749 46.9145 24.7229 47.546 24.2675 48.0175L18.0175 54.2675ZM37.5 11.25V13.03C38.2156 13.3395 38.8669 13.7805 39.42 14.33C39.8889 14.7991 40.1523 15.4353 40.1522 16.0986C40.1521 16.7619 39.8885 17.3979 39.4194 17.8669C38.9503 18.3358 38.3141 18.5992 37.6508 18.5991C36.9875 18.599 36.3514 18.3354 35.8825 17.8663C35.7371 17.7208 35.5581 17.6135 35.3613 17.5538C35.1645 17.4941 34.9561 17.4839 34.7544 17.5241C34.5527 17.5642 34.3641 17.6535 34.2051 17.784C34.0462 17.9145 33.922 18.0822 33.8434 18.2723C33.7648 18.4623 33.7343 18.6688 33.7546 18.8734C33.7749 19.078 33.8454 19.2745 33.9598 19.4454C34.0741 19.6163 34.2289 19.7563 34.4104 19.853C34.5918 19.9498 34.7944 20.0002 35 20C36.437 19.996 37.8313 20.4879 38.9476 21.3927C40.064 22.2974 40.8341 23.5596 41.1278 24.9662C41.4216 26.3728 41.2211 27.8377 40.5602 29.1137C39.8993 30.3896 38.8184 31.3985 37.5 31.97V33.75C37.5 34.413 37.2366 35.0489 36.7678 35.5178C36.2989 35.9866 35.663 36.25 35 36.25C34.337 36.25 33.7011 35.9866 33.2322 35.5178C32.7634 35.0489 32.5 34.413 32.5 33.75V31.97C31.7844 31.6605 31.1331 31.2195 30.58 30.67C30.1111 30.2009 29.8477 29.5647 29.8478 28.9014C29.8479 28.2381 30.1115 27.6021 30.5806 27.1331C31.0497 26.6642 31.6859 26.4008 32.3492 26.4009C33.0125 26.401 33.6486 26.6646 34.1175 27.1338C34.2629 27.2792 34.4419 27.3865 34.6387 27.4462C34.8355 27.5059 35.0439 27.5161 35.2456 27.4759C35.4473 27.4358 35.6359 27.3465 35.7949 27.216C35.9538 27.0855 36.078 26.9178 36.1566 26.7277C36.2352 26.5377 36.2657 26.3312 36.2454 26.1266C36.2251 25.922 36.1546 25.7255 36.0402 25.5546C35.9259 25.3838 35.7711 25.2437 35.5896 25.147C35.4082 25.0502 35.2056 24.9998 35 25C33.563 25.004 32.1687 24.5121 31.0524 23.6073C29.936 22.7026 29.1659 21.4404 28.8721 20.0338C28.5784 18.6272 28.7789 17.1623 29.4398 15.8863C30.1007 14.6104 31.1816 13.6015 32.5 13.03V11.25C32.5 10.587 32.7634 9.95107 33.2322 9.48223C33.7011 9.01339 34.337 8.75 35 8.75C35.663 8.75 36.2989 9.01339 36.7678 9.48223C37.2366 9.95107 37.5 10.587 37.5 11.25Z" fill="#00B050"/>
</g>
</svg>
