<svg width="134" height="120" viewBox="0 0 134 120" fill="none" xmlns="http://www.w3.org/2000/svg">
<g id="Group 1">
<g id="Vector">
<mask id="path-1-outside-1_17_321" maskUnits="userSpaceOnUse" x="0" y="0" width="134" height="120" fill="black">
<rect fill="white" width="134" height="120"/>
<path d="M113.3 91.6829C113.619 91.7074 113.938 91.7197 114.257 91.7197C116.139 91.7181 118.001 91.3378 119.733 90.6015C121.465 89.8652 123.031 88.7879 124.337 87.4338C125.644 86.0796 126.665 84.4764 127.339 82.7195C128.014 80.9626 128.327 79.088 128.262 77.2073L128.242 76.5118L127.546 76.4259C124.681 76.0653 121.774 76.599 119.224 77.954C116.674 79.3089 114.605 81.4189 113.3 83.995V79.0853L113.394 78.537C113.664 76.9684 113.591 75.3598 113.18 73.8221C112.768 72.2844 112.028 70.8543 111.01 69.6306C109.992 68.4069 108.721 67.4186 107.284 66.734C105.847 66.0494 104.278 65.6848 102.686 65.6653H101.991L101.872 66.3527C101.614 67.8455 101.667 69.3755 102.028 70.8469C102.389 72.3182 103.05 73.6991 103.97 74.903C104.889 76.1069 106.048 77.1078 107.372 77.843C108.697 78.5782 110.159 79.0318 111.667 79.1753V101.572C109.923 97.3503 106.75 93.8757 102.705 91.7548C98.659 89.634 93.9969 89.0018 89.5325 89.9686L88.8492 90.1158L88.886 90.8114C89.0294 93.5624 89.7541 96.2519 91.0123 98.7025C92.2705 101.153 94.0336 103.309 96.1856 105.029C98.3376 106.749 100.83 107.993 103.497 108.68C106.165 109.367 108.948 109.481 111.663 109.014V116.379H70.2331V91.6829C70.5522 91.7074 70.8714 91.7197 71.1905 91.7197C73.0723 91.7181 74.9346 91.3378 76.6664 90.6015C78.3982 89.8652 79.9641 88.7879 81.2708 87.4338C82.5776 86.0796 83.5985 84.4764 84.2728 82.7195C84.947 80.9626 85.2608 79.088 85.1955 77.2073L85.171 76.5118L84.4795 76.4259C81.6143 76.0653 78.7076 76.599 76.1574 77.954C73.6072 79.3089 71.538 81.4189 70.2331 83.995V79.0853L70.3272 78.537C70.5979 76.9681 70.5248 75.3591 70.1131 73.8211C69.7013 72.2831 68.9606 70.8529 67.9422 69.629C66.9238 68.4052 65.6519 67.417 64.2143 66.7327C62.7768 66.0484 61.2078 65.6842 59.6158 65.6653H58.9202L58.8016 66.3527C58.5434 67.8455 58.5964 69.3755 58.9573 70.8469C59.3182 72.3182 59.9792 73.6991 60.8988 74.903C61.8185 76.1069 62.9769 77.1078 64.3015 77.843C65.6261 78.5782 67.0884 79.0318 68.5965 79.1753V101.572C66.8511 97.35 63.6782 93.8752 59.6318 91.7544C55.5854 89.6336 50.9227 89.0016 46.4577 89.9686L45.7785 90.1158L45.8153 90.8114C45.9586 93.5628 46.6834 96.2527 47.9419 98.7037C49.2003 101.155 50.9639 103.311 53.1163 105.031C55.2688 106.751 57.7613 107.995 60.4295 108.682C63.0978 109.368 65.8813 109.482 68.5965 109.014V116.379H26.4546V91.6829C26.7737 91.7074 27.0929 91.7197 27.412 91.7197C29.2938 91.7181 31.1561 91.3378 32.8879 90.6015C34.6197 89.8652 36.1856 88.7879 37.4923 87.4338C38.7991 86.0796 39.82 84.4764 40.4943 82.7195C41.1685 80.9626 41.4823 79.088 41.417 77.2073L41.3925 76.5118L40.701 76.4259C37.8358 76.0653 34.9291 76.599 32.3789 77.954C29.8287 79.3089 27.7595 81.4189 26.4546 83.995V79.0853L26.5487 78.537C26.8194 76.9681 26.7463 75.3591 26.3346 73.8211C25.9228 72.2831 25.1821 70.8529 24.1637 69.629C23.1453 68.4052 21.8734 67.417 20.4358 66.7327C18.9983 66.0484 17.4293 65.6842 15.8373 65.6653H15.1417L15.0231 66.3527C14.7649 67.8455 14.8179 69.3755 15.1788 70.8469C15.5397 72.3182 16.2007 73.6991 17.1203 74.903C18.04 76.1069 19.1984 77.1078 20.523 77.843C21.8476 78.5782 23.3099 79.0318 24.818 79.1753V101.572C23.0726 97.35 19.8997 93.8752 15.8533 91.7544C11.8069 89.6336 7.14416 89.0016 2.67918 89.9686L2 90.1158L2.03682 90.8114C2.18015 93.5628 2.90492 96.2527 4.16336 98.7037C5.42181 101.155 7.18537 103.311 9.33782 105.031C11.4903 106.751 13.9828 107.995 16.651 108.682C19.3193 109.368 22.1028 109.482 24.818 109.014V116.379H6.40649V118.015H130.885V116.379H113.292L113.3 91.6829ZM117.281 81.3479C118.521 80.1697 119.992 79.262 121.601 78.6823C123.211 78.1027 124.923 77.8637 126.63 77.9806C126.591 79.6526 126.215 81.2996 125.523 82.8221C124.831 84.3447 123.838 85.7113 122.603 86.8396C121.368 87.9678 119.918 88.8344 118.34 89.3869C116.761 89.9394 115.087 90.1665 113.418 90.0545C113.457 88.4204 113.818 86.81 114.481 85.3158C115.144 83.8217 116.095 82.4732 117.281 81.3479ZM97.2612 103.777C95.3695 102.276 93.8012 100.407 92.6508 98.2836C91.5005 96.1601 90.7918 93.8257 90.5676 91.421C92.9984 90.9988 95.4902 91.0842 97.8865 91.6717C100.283 92.2592 102.531 93.3362 104.491 94.8349C106.451 96.3336 108.08 98.2216 109.274 100.38C110.469 102.539 111.205 104.921 111.434 107.378C108.951 107.812 106.405 107.716 103.962 107.096C101.519 106.475 99.2354 105.344 97.2612 103.777ZM105.403 74.0774C103.882 72.1777 103.159 69.7616 103.386 67.3388C105.853 67.5582 108.133 68.7469 109.725 70.6443C111.317 72.5418 112.092 74.9931 111.88 77.461L111.819 77.5387C110.572 77.4222 109.361 77.0556 108.259 76.4609C107.156 75.8662 106.185 75.0556 105.403 74.0774ZM74.2141 81.3479C75.454 80.1695 76.9254 79.2616 78.5348 78.682C80.1441 78.1023 81.8565 77.8635 83.563 77.9806C83.5247 79.6515 83.1486 81.2974 82.4573 82.8191C81.766 84.3408 80.7739 85.7068 79.5407 86.8349C78.3075 87.963 76.8587 88.8298 75.2816 89.3831C73.7045 89.9364 72.0317 90.1648 70.364 90.0545C70.4002 88.4211 70.7589 86.811 71.4197 85.3167C72.0804 83.8225 73.0301 82.4737 74.2141 81.3479ZM54.1905 103.777C52.3001 102.275 50.7329 100.406 49.5833 98.2826C48.4337 96.1592 47.7254 93.8252 47.501 91.421C49.9317 90.9995 52.4234 91.0853 54.8193 91.6731C57.2153 92.2608 59.4638 93.3378 61.4235 94.8364C63.3832 96.335 65.0117 98.2228 66.2067 100.381C67.4017 102.539 68.1373 104.921 68.3674 107.378C65.8841 107.812 63.3369 107.716 60.8934 107.095C58.45 106.475 56.1656 105.344 54.1905 103.777ZM62.3366 74.0774C60.8142 72.1786 60.0908 69.7617 60.3195 67.3388C62.7867 67.5582 65.0663 68.7469 66.6585 70.6443C68.2507 72.5418 69.0256 74.9931 68.8134 77.461C68.7907 77.4851 68.7701 77.5111 68.752 77.5387C67.5049 77.4227 66.294 77.0563 65.1917 76.4616C64.0894 75.8668 63.1183 75.0559 62.3366 74.0774ZM30.4233 81.3479C31.6634 80.1697 33.1348 79.262 34.7441 78.6823C36.3535 78.1027 38.0657 77.8637 39.7723 77.9806C39.7338 79.6504 39.3581 81.2952 38.6676 82.816C37.9771 84.3369 36.986 85.7023 35.7542 86.8302C34.5223 87.9581 33.075 88.8252 31.4993 89.3793C29.9237 89.9334 28.2522 90.1631 26.5855 90.0545C26.6217 88.4211 26.9804 86.811 27.6412 85.3167C28.3019 83.8225 29.2516 82.4737 30.4356 81.3479H30.4233ZM10.412 103.777C8.52156 102.275 6.95443 100.406 5.80483 98.2826C4.65523 96.1592 3.94693 93.8252 3.7225 91.421C6.15323 90.9995 8.64487 91.0853 11.0408 91.6731C13.4368 92.2608 15.6853 93.3378 17.645 94.8364C19.6047 96.335 21.2332 98.2228 22.4282 100.381C23.6232 102.539 24.3588 104.921 24.5889 107.378C22.1056 107.812 19.5584 107.716 17.1149 107.095C14.6715 106.475 12.3871 105.344 10.412 103.777ZM18.5581 74.0774C17.0357 72.1786 16.3123 69.7617 16.541 67.3388C19.0082 67.5582 21.2878 68.7469 22.88 70.6443C24.4722 72.5418 25.2471 74.9931 25.0349 77.461C25.0122 77.4851 24.9916 77.5111 24.9735 77.5387C23.7264 77.4227 22.5155 77.0563 21.4132 76.4616C20.3109 75.8668 19.3398 75.0559 18.5581 74.0774ZM122.275 34.9803L123.808 34.4075L126.346 41.1989L124.813 41.7717L122.275 34.9803ZM127.353 48.5385L128.886 47.9657L130.676 52.756L129.143 53.3288L127.353 48.5385ZM95.8157 34.9733L97.3488 34.4005L99.8855 41.1923L98.3524 41.7651L95.8157 34.9733ZM100.894 48.5496L102.427 47.9768L104.217 52.7675L102.684 53.3403L100.894 48.5496ZM70.177 34.966L71.7101 34.3932L74.248 41.1842L72.715 41.757L70.177 34.966ZM75.2467 48.5647L76.7798 47.9919L78.5702 52.783L77.0372 53.3558L75.2467 48.5647ZM43.7221 34.9713L45.2552 34.3985L47.7931 41.1903L46.2601 41.7631L43.7221 34.9713ZM48.7919 48.5623L50.3249 47.9895L52.1149 52.7806L50.5819 53.3534L48.7919 48.5623ZM17.2619 34.9721L18.7954 34.3993L21.3321 41.1911L19.7986 41.7639L17.2619 34.9721ZM22.337 48.5529L23.87 47.9801L25.6604 52.7711L24.1274 53.3439L22.337 48.5529ZM6.66343 52.7744L8.45262 47.9833L9.98569 48.5561L8.1965 53.3468L6.66343 52.7744ZM10.9869 41.1944L13.5248 34.4034L15.0574 34.9762L12.5199 41.7676L10.9869 41.1944ZM112.222 52.7769L114.012 47.9858L115.545 48.5586L113.755 53.3497L112.222 52.7769ZM116.551 41.196L119.088 34.4046L120.621 34.9774L118.083 41.7692L116.551 41.196ZM86.5842 52.7793L88.3746 47.9882L89.9076 48.561L88.1172 53.3521L86.5842 52.7793ZM90.9109 41.2022L93.4484 34.4104L94.9814 34.9836L92.4439 41.775L90.9109 41.2022ZM60.126 52.7826L61.9164 47.9919L63.4495 48.5647L61.659 53.3558L60.126 52.7826ZM64.4482 41.2018L66.9861 34.4104L68.5192 34.9832L65.9813 41.775L64.4482 41.2018ZM33.6694 52.7822L35.4595 47.9911L36.9925 48.5639L35.2025 53.355L33.6694 52.7822ZM37.9876 41.185L40.5251 34.3932L42.0581 34.966L39.5206 41.7578L37.9876 41.185ZM128.786 11.8669H101.549L95.3791 1H43.1682L36.9982 11.871H9.76148C8.64447 11.8731 7.57383 12.3178 6.78398 13.1077C5.99414 13.8975 5.54945 14.9682 5.54729 16.0852V24.2681H13.2638L14.7203 28.1754L16.1564 27.6394L17.5925 28.1754L19.0532 24.2681H39.7191L41.1797 28.1754L42.714 27.6026L41.4866 24.2681H44.3301L43.1027 27.6026L44.637 28.1754L46.0976 24.2681H66.2194L67.68 28.1754L69.2143 27.6026L67.9869 24.2681H70.7732L69.5212 27.5944L71.0555 28.1672L72.5161 24.2599H91.8196L93.2761 28.1672L94.8104 27.5944L93.583 24.2599H97.2407L96.0133 27.5944L97.5435 28.1672L99.0042 24.2599H118.275L119.736 28.1672L121.27 27.5944L120.022 24.2599H122.865L121.618 27.5944L123.152 28.1672L124.613 24.2599H133V16.077C132.997 14.9607 132.552 13.8911 131.762 13.1021C130.972 12.3132 129.902 11.869 128.786 11.8669ZM44.1215 2.63658H94.4463L99.6547 11.8178H38.9131L44.1215 2.63658ZM9.75329 13.5076H128.786C129.328 13.5066 129.856 13.6759 130.297 13.9916C130.737 14.3073 131.067 14.7534 131.241 15.2669H7.31479C7.48686 14.7539 7.8155 14.3079 8.25442 13.9915C8.69334 13.6752 9.22043 13.5045 9.76148 13.5035L9.75329 13.5076ZM16.1482 27.353L15.0026 24.2803H17.2979L16.1482 27.353ZM131.355 22.6438H7.18387V16.9157H131.363L131.355 22.6438Z"/>
</mask>
<path d="M113.3 91.6829C113.619 91.7074 113.938 91.7197 114.257 91.7197C116.139 91.7181 118.001 91.3378 119.733 90.6015C121.465 89.8652 123.031 88.7879 124.337 87.4338C125.644 86.0796 126.665 84.4764 127.339 82.7195C128.014 80.9626 128.327 79.088 128.262 77.2073L128.242 76.5118L127.546 76.4259C124.681 76.0653 121.774 76.599 119.224 77.954C116.674 79.3089 114.605 81.4189 113.3 83.995V79.0853L113.394 78.537C113.664 76.9684 113.591 75.3598 113.18 73.8221C112.768 72.2844 112.028 70.8543 111.01 69.6306C109.992 68.4069 108.721 67.4186 107.284 66.734C105.847 66.0494 104.278 65.6848 102.686 65.6653H101.991L101.872 66.3527C101.614 67.8455 101.667 69.3755 102.028 70.8469C102.389 72.3182 103.05 73.6991 103.97 74.903C104.889 76.1069 106.048 77.1078 107.372 77.843C108.697 78.5782 110.159 79.0318 111.667 79.1753V101.572C109.923 97.3503 106.75 93.8757 102.705 91.7548C98.659 89.634 93.9969 89.0018 89.5325 89.9686L88.8492 90.1158L88.886 90.8114C89.0294 93.5624 89.7541 96.2519 91.0123 98.7025C92.2705 101.153 94.0336 103.309 96.1856 105.029C98.3376 106.749 100.83 107.993 103.497 108.68C106.165 109.367 108.948 109.481 111.663 109.014V116.379H70.2331V91.6829C70.5522 91.7074 70.8714 91.7197 71.1905 91.7197C73.0723 91.7181 74.9346 91.3378 76.6664 90.6015C78.3982 89.8652 79.9641 88.7879 81.2708 87.4338C82.5776 86.0796 83.5985 84.4764 84.2728 82.7195C84.947 80.9626 85.2608 79.088 85.1955 77.2073L85.171 76.5118L84.4795 76.4259C81.6143 76.0653 78.7076 76.599 76.1574 77.954C73.6072 79.3089 71.538 81.4189 70.2331 83.995V79.0853L70.3272 78.537C70.5979 76.9681 70.5248 75.3591 70.1131 73.8211C69.7013 72.2831 68.9606 70.8529 67.9422 69.629C66.9238 68.4052 65.6519 67.417 64.2143 66.7327C62.7768 66.0484 61.2078 65.6842 59.6158 65.6653H58.9202L58.8016 66.3527C58.5434 67.8455 58.5964 69.3755 58.9573 70.8469C59.3182 72.3182 59.9792 73.6991 60.8988 74.903C61.8185 76.1069 62.9769 77.1078 64.3015 77.843C65.6261 78.5782 67.0884 79.0318 68.5965 79.1753V101.572C66.8511 97.35 63.6782 93.8752 59.6318 91.7544C55.5854 89.6336 50.9227 89.0016 46.4577 89.9686L45.7785 90.1158L45.8153 90.8114C45.9586 93.5628 46.6834 96.2527 47.9419 98.7037C49.2003 101.155 50.9639 103.311 53.1163 105.031C55.2688 106.751 57.7613 107.995 60.4295 108.682C63.0978 109.368 65.8813 109.482 68.5965 109.014V116.379H26.4546V91.6829C26.7737 91.7074 27.0929 91.7197 27.412 91.7197C29.2938 91.7181 31.1561 91.3378 32.8879 90.6015C34.6197 89.8652 36.1856 88.7879 37.4923 87.4338C38.7991 86.0796 39.82 84.4764 40.4943 82.7195C41.1685 80.9626 41.4823 79.088 41.417 77.2073L41.3925 76.5118L40.701 76.4259C37.8358 76.0653 34.9291 76.599 32.3789 77.954C29.8287 79.3089 27.7595 81.4189 26.4546 83.995V79.0853L26.5487 78.537C26.8194 76.9681 26.7463 75.3591 26.3346 73.8211C25.9228 72.2831 25.1821 70.8529 24.1637 69.629C23.1453 68.4052 21.8734 67.417 20.4358 66.7327C18.9983 66.0484 17.4293 65.6842 15.8373 65.6653H15.1417L15.0231 66.3527C14.7649 67.8455 14.8179 69.3755 15.1788 70.8469C15.5397 72.3182 16.2007 73.6991 17.1203 74.903C18.04 76.1069 19.1984 77.1078 20.523 77.843C21.8476 78.5782 23.3099 79.0318 24.818 79.1753V101.572C23.0726 97.35 19.8997 93.8752 15.8533 91.7544C11.8069 89.6336 7.14416 89.0016 2.67918 89.9686L2 90.1158L2.03682 90.8114C2.18015 93.5628 2.90492 96.2527 4.16336 98.7037C5.42181 101.155 7.18537 103.311 9.33782 105.031C11.4903 106.751 13.9828 107.995 16.651 108.682C19.3193 109.368 22.1028 109.482 24.818 109.014V116.379H6.40649V118.015H130.885V116.379H113.292L113.3 91.6829ZM117.281 81.3479C118.521 80.1697 119.992 79.262 121.601 78.6823C123.211 78.1027 124.923 77.8637 126.63 77.9806C126.591 79.6526 126.215 81.2996 125.523 82.8221C124.831 84.3447 123.838 85.7113 122.603 86.8396C121.368 87.9678 119.918 88.8344 118.34 89.3869C116.761 89.9394 115.087 90.1665 113.418 90.0545C113.457 88.4204 113.818 86.81 114.481 85.3158C115.144 83.8217 116.095 82.4732 117.281 81.3479ZM97.2612 103.777C95.3695 102.276 93.8012 100.407 92.6508 98.2836C91.5005 96.1601 90.7918 93.8257 90.5676 91.421C92.9984 90.9988 95.4902 91.0842 97.8865 91.6717C100.283 92.2592 102.531 93.3362 104.491 94.8349C106.451 96.3336 108.08 98.2216 109.274 100.38C110.469 102.539 111.205 104.921 111.434 107.378C108.951 107.812 106.405 107.716 103.962 107.096C101.519 106.475 99.2354 105.344 97.2612 103.777ZM105.403 74.0774C103.882 72.1777 103.159 69.7616 103.386 67.3388C105.853 67.5582 108.133 68.7469 109.725 70.6443C111.317 72.5418 112.092 74.9931 111.88 77.461L111.819 77.5387C110.572 77.4222 109.361 77.0556 108.259 76.4609C107.156 75.8662 106.185 75.0556 105.403 74.0774ZM74.2141 81.3479C75.454 80.1695 76.9254 79.2616 78.5348 78.682C80.1441 78.1023 81.8565 77.8635 83.563 77.9806C83.5247 79.6515 83.1486 81.2974 82.4573 82.8191C81.766 84.3408 80.7739 85.7068 79.5407 86.8349C78.3075 87.963 76.8587 88.8298 75.2816 89.3831C73.7045 89.9364 72.0317 90.1648 70.364 90.0545C70.4002 88.4211 70.7589 86.811 71.4197 85.3167C72.0804 83.8225 73.0301 82.4737 74.2141 81.3479ZM54.1905 103.777C52.3001 102.275 50.7329 100.406 49.5833 98.2826C48.4337 96.1592 47.7254 93.8252 47.501 91.421C49.9317 90.9995 52.4234 91.0853 54.8193 91.6731C57.2153 92.2608 59.4638 93.3378 61.4235 94.8364C63.3832 96.335 65.0117 98.2228 66.2067 100.381C67.4017 102.539 68.1373 104.921 68.3674 107.378C65.8841 107.812 63.3369 107.716 60.8934 107.095C58.45 106.475 56.1656 105.344 54.1905 103.777ZM62.3366 74.0774C60.8142 72.1786 60.0908 69.7617 60.3195 67.3388C62.7867 67.5582 65.0663 68.7469 66.6585 70.6443C68.2507 72.5418 69.0256 74.9931 68.8134 77.461C68.7907 77.4851 68.7701 77.5111 68.752 77.5387C67.5049 77.4227 66.294 77.0563 65.1917 76.4616C64.0894 75.8668 63.1183 75.0559 62.3366 74.0774ZM30.4233 81.3479C31.6634 80.1697 33.1348 79.262 34.7441 78.6823C36.3535 78.1027 38.0657 77.8637 39.7723 77.9806C39.7338 79.6504 39.3581 81.2952 38.6676 82.816C37.9771 84.3369 36.986 85.7023 35.7542 86.8302C34.5223 87.9581 33.075 88.8252 31.4993 89.3793C29.9237 89.9334 28.2522 90.1631 26.5855 90.0545C26.6217 88.4211 26.9804 86.811 27.6412 85.3167C28.3019 83.8225 29.2516 82.4737 30.4356 81.3479H30.4233ZM10.412 103.777C8.52156 102.275 6.95443 100.406 5.80483 98.2826C4.65523 96.1592 3.94693 93.8252 3.7225 91.421C6.15323 90.9995 8.64487 91.0853 11.0408 91.6731C13.4368 92.2608 15.6853 93.3378 17.645 94.8364C19.6047 96.335 21.2332 98.2228 22.4282 100.381C23.6232 102.539 24.3588 104.921 24.5889 107.378C22.1056 107.812 19.5584 107.716 17.1149 107.095C14.6715 106.475 12.3871 105.344 10.412 103.777ZM18.5581 74.0774C17.0357 72.1786 16.3123 69.7617 16.541 67.3388C19.0082 67.5582 21.2878 68.7469 22.88 70.6443C24.4722 72.5418 25.2471 74.9931 25.0349 77.461C25.0122 77.4851 24.9916 77.5111 24.9735 77.5387C23.7264 77.4227 22.5155 77.0563 21.4132 76.4616C20.3109 75.8668 19.3398 75.0559 18.5581 74.0774ZM122.275 34.9803L123.808 34.4075L126.346 41.1989L124.813 41.7717L122.275 34.9803ZM127.353 48.5385L128.886 47.9657L130.676 52.756L129.143 53.3288L127.353 48.5385ZM95.8157 34.9733L97.3488 34.4005L99.8855 41.1923L98.3524 41.7651L95.8157 34.9733ZM100.894 48.5496L102.427 47.9768L104.217 52.7675L102.684 53.3403L100.894 48.5496ZM70.177 34.966L71.7101 34.3932L74.248 41.1842L72.715 41.757L70.177 34.966ZM75.2467 48.5647L76.7798 47.9919L78.5702 52.783L77.0372 53.3558L75.2467 48.5647ZM43.7221 34.9713L45.2552 34.3985L47.7931 41.1903L46.2601 41.7631L43.7221 34.9713ZM48.7919 48.5623L50.3249 47.9895L52.1149 52.7806L50.5819 53.3534L48.7919 48.5623ZM17.2619 34.9721L18.7954 34.3993L21.3321 41.1911L19.7986 41.7639L17.2619 34.9721ZM22.337 48.5529L23.87 47.9801L25.6604 52.7711L24.1274 53.3439L22.337 48.5529ZM6.66343 52.7744L8.45262 47.9833L9.98569 48.5561L8.1965 53.3468L6.66343 52.7744ZM10.9869 41.1944L13.5248 34.4034L15.0574 34.9762L12.5199 41.7676L10.9869 41.1944ZM112.222 52.7769L114.012 47.9858L115.545 48.5586L113.755 53.3497L112.222 52.7769ZM116.551 41.196L119.088 34.4046L120.621 34.9774L118.083 41.7692L116.551 41.196ZM86.5842 52.7793L88.3746 47.9882L89.9076 48.561L88.1172 53.3521L86.5842 52.7793ZM90.9109 41.2022L93.4484 34.4104L94.9814 34.9836L92.4439 41.775L90.9109 41.2022ZM60.126 52.7826L61.9164 47.9919L63.4495 48.5647L61.659 53.3558L60.126 52.7826ZM64.4482 41.2018L66.9861 34.4104L68.5192 34.9832L65.9813 41.775L64.4482 41.2018ZM33.6694 52.7822L35.4595 47.9911L36.9925 48.5639L35.2025 53.355L33.6694 52.7822ZM37.9876 41.185L40.5251 34.3932L42.0581 34.966L39.5206 41.7578L37.9876 41.185ZM128.786 11.8669H101.549L95.3791 1H43.1682L36.9982 11.871H9.76148C8.64447 11.8731 7.57383 12.3178 6.78398 13.1077C5.99414 13.8975 5.54945 14.9682 5.54729 16.0852V24.2681H13.2638L14.7203 28.1754L16.1564 27.6394L17.5925 28.1754L19.0532 24.2681H39.7191L41.1797 28.1754L42.714 27.6026L41.4866 24.2681H44.3301L43.1027 27.6026L44.637 28.1754L46.0976 24.2681H66.2194L67.68 28.1754L69.2143 27.6026L67.9869 24.2681H70.7732L69.5212 27.5944L71.0555 28.1672L72.5161 24.2599H91.8196L93.2761 28.1672L94.8104 27.5944L93.583 24.2599H97.2407L96.0133 27.5944L97.5435 28.1672L99.0042 24.2599H118.275L119.736 28.1672L121.27 27.5944L120.022 24.2599H122.865L121.618 27.5944L123.152 28.1672L124.613 24.2599H133V16.077C132.997 14.9607 132.552 13.8911 131.762 13.1021C130.972 12.3132 129.902 11.869 128.786 11.8669ZM44.1215 2.63658H94.4463L99.6547 11.8178H38.9131L44.1215 2.63658ZM9.75329 13.5076H128.786C129.328 13.5066 129.856 13.6759 130.297 13.9916C130.737 14.3073 131.067 14.7534 131.241 15.2669H7.31479C7.48686 14.7539 7.8155 14.3079 8.25442 13.9915C8.69334 13.6752 9.22043 13.5045 9.76148 13.5035L9.75329 13.5076ZM16.1482 27.353L15.0026 24.2803H17.2979L16.1482 27.353ZM131.355 22.6438H7.18387V16.9157H131.363L131.355 22.6438Z" fill="#F8F8FF"/>
<path d="M113.3 91.6829C113.619 91.7074 113.938 91.7197 114.257 91.7197C116.139 91.7181 118.001 91.3378 119.733 90.6015C121.465 89.8652 123.031 88.7879 124.337 87.4338C125.644 86.0796 126.665 84.4764 127.339 82.7195C128.014 80.9626 128.327 79.088 128.262 77.2073L128.242 76.5118L127.546 76.4259C124.681 76.0653 121.774 76.599 119.224 77.954C116.674 79.3089 114.605 81.4189 113.3 83.995V79.0853L113.394 78.537C113.664 76.9684 113.591 75.3598 113.18 73.8221C112.768 72.2844 112.028 70.8543 111.01 69.6306C109.992 68.4069 108.721 67.4186 107.284 66.734C105.847 66.0494 104.278 65.6848 102.686 65.6653H101.991L101.872 66.3527C101.614 67.8455 101.667 69.3755 102.028 70.8469C102.389 72.3182 103.05 73.6991 103.97 74.903C104.889 76.1069 106.048 77.1078 107.372 77.843C108.697 78.5782 110.159 79.0318 111.667 79.1753V101.572C109.923 97.3503 106.75 93.8757 102.705 91.7548C98.659 89.634 93.9969 89.0018 89.5325 89.9686L88.8492 90.1158L88.886 90.8114C89.0294 93.5624 89.7541 96.2519 91.0123 98.7025C92.2705 101.153 94.0336 103.309 96.1856 105.029C98.3376 106.749 100.83 107.993 103.497 108.68C106.165 109.367 108.948 109.481 111.663 109.014V116.379H70.2331V91.6829C70.5522 91.7074 70.8714 91.7197 71.1905 91.7197C73.0723 91.7181 74.9346 91.3378 76.6664 90.6015C78.3982 89.8652 79.9641 88.7879 81.2708 87.4338C82.5776 86.0796 83.5985 84.4764 84.2728 82.7195C84.947 80.9626 85.2608 79.088 85.1955 77.2073L85.171 76.5118L84.4795 76.4259C81.6143 76.0653 78.7076 76.599 76.1574 77.954C73.6072 79.3089 71.538 81.4189 70.2331 83.995V79.0853L70.3272 78.537C70.5979 76.9681 70.5248 75.3591 70.1131 73.8211C69.7013 72.2831 68.9606 70.8529 67.9422 69.629C66.9238 68.4052 65.6519 67.417 64.2143 66.7327C62.7768 66.0484 61.2078 65.6842 59.6158 65.6653H58.9202L58.8016 66.3527C58.5434 67.8455 58.5964 69.3755 58.9573 70.8469C59.3182 72.3182 59.9792 73.6991 60.8988 74.903C61.8185 76.1069 62.9769 77.1078 64.3015 77.843C65.6261 78.5782 67.0884 79.0318 68.5965 79.1753V101.572C66.8511 97.35 63.6782 93.8752 59.6318 91.7544C55.5854 89.6336 50.9227 89.0016 46.4577 89.9686L45.7785 90.1158L45.8153 90.8114C45.9586 93.5628 46.6834 96.2527 47.9419 98.7037C49.2003 101.155 50.9639 103.311 53.1163 105.031C55.2688 106.751 57.7613 107.995 60.4295 108.682C63.0978 109.368 65.8813 109.482 68.5965 109.014V116.379H26.4546V91.6829C26.7737 91.7074 27.0929 91.7197 27.412 91.7197C29.2938 91.7181 31.1561 91.3378 32.8879 90.6015C34.6197 89.8652 36.1856 88.7879 37.4923 87.4338C38.7991 86.0796 39.82 84.4764 40.4943 82.7195C41.1685 80.9626 41.4823 79.088 41.417 77.2073L41.3925 76.5118L40.701 76.4259C37.8358 76.0653 34.9291 76.599 32.3789 77.954C29.8287 79.3089 27.7595 81.4189 26.4546 83.995V79.0853L26.5487 78.537C26.8194 76.9681 26.7463 75.3591 26.3346 73.8211C25.9228 72.2831 25.1821 70.8529 24.1637 69.629C23.1453 68.4052 21.8734 67.417 20.4358 66.7327C18.9983 66.0484 17.4293 65.6842 15.8373 65.6653H15.1417L15.0231 66.3527C14.7649 67.8455 14.8179 69.3755 15.1788 70.8469C15.5397 72.3182 16.2007 73.6991 17.1203 74.903C18.04 76.1069 19.1984 77.1078 20.523 77.843C21.8476 78.5782 23.3099 79.0318 24.818 79.1753V101.572C23.0726 97.35 19.8997 93.8752 15.8533 91.7544C11.8069 89.6336 7.14416 89.0016 2.67918 89.9686L2 90.1158L2.03682 90.8114C2.18015 93.5628 2.90492 96.2527 4.16336 98.7037C5.42181 101.155 7.18537 103.311 9.33782 105.031C11.4903 106.751 13.9828 107.995 16.651 108.682C19.3193 109.368 22.1028 109.482 24.818 109.014V116.379H6.40649V118.015H130.885V116.379H113.292L113.3 91.6829ZM117.281 81.3479C118.521 80.1697 119.992 79.262 121.601 78.6823C123.211 78.1027 124.923 77.8637 126.63 77.9806C126.591 79.6526 126.215 81.2996 125.523 82.8221C124.831 84.3447 123.838 85.7113 122.603 86.8396C121.368 87.9678 119.918 88.8344 118.34 89.3869C116.761 89.9394 115.087 90.1665 113.418 90.0545C113.457 88.4204 113.818 86.81 114.481 85.3158C115.144 83.8217 116.095 82.4732 117.281 81.3479ZM97.2612 103.777C95.3695 102.276 93.8012 100.407 92.6508 98.2836C91.5005 96.1601 90.7918 93.8257 90.5676 91.421C92.9984 90.9988 95.4902 91.0842 97.8865 91.6717C100.283 92.2592 102.531 93.3362 104.491 94.8349C106.451 96.3336 108.08 98.2216 109.274 100.38C110.469 102.539 111.205 104.921 111.434 107.378C108.951 107.812 106.405 107.716 103.962 107.096C101.519 106.475 99.2354 105.344 97.2612 103.777ZM105.403 74.0774C103.882 72.1777 103.159 69.7616 103.386 67.3388C105.853 67.5582 108.133 68.7469 109.725 70.6443C111.317 72.5418 112.092 74.9931 111.88 77.461L111.819 77.5387C110.572 77.4222 109.361 77.0556 108.259 76.4609C107.156 75.8662 106.185 75.0556 105.403 74.0774ZM74.2141 81.3479C75.454 80.1695 76.9254 79.2616 78.5348 78.682C80.1441 78.1023 81.8565 77.8635 83.563 77.9806C83.5247 79.6515 83.1486 81.2974 82.4573 82.8191C81.766 84.3408 80.7739 85.7068 79.5407 86.8349C78.3075 87.963 76.8587 88.8298 75.2816 89.3831C73.7045 89.9364 72.0317 90.1648 70.364 90.0545C70.4002 88.4211 70.7589 86.811 71.4197 85.3167C72.0804 83.8225 73.0301 82.4737 74.2141 81.3479ZM54.1905 103.777C52.3001 102.275 50.7329 100.406 49.5833 98.2826C48.4337 96.1592 47.7254 93.8252 47.501 91.421C49.9317 90.9995 52.4234 91.0853 54.8193 91.6731C57.2153 92.2608 59.4638 93.3378 61.4235 94.8364C63.3832 96.335 65.0117 98.2228 66.2067 100.381C67.4017 102.539 68.1373 104.921 68.3674 107.378C65.8841 107.812 63.3369 107.716 60.8934 107.095C58.45 106.475 56.1656 105.344 54.1905 103.777ZM62.3366 74.0774C60.8142 72.1786 60.0908 69.7617 60.3195 67.3388C62.7867 67.5582 65.0663 68.7469 66.6585 70.6443C68.2507 72.5418 69.0256 74.9931 68.8134 77.461C68.7907 77.4851 68.7701 77.5111 68.752 77.5387C67.5049 77.4227 66.294 77.0563 65.1917 76.4616C64.0894 75.8668 63.1183 75.0559 62.3366 74.0774ZM30.4233 81.3479C31.6634 80.1697 33.1348 79.262 34.7441 78.6823C36.3535 78.1027 38.0657 77.8637 39.7723 77.9806C39.7338 79.6504 39.3581 81.2952 38.6676 82.816C37.9771 84.3369 36.986 85.7023 35.7542 86.8302C34.5223 87.9581 33.075 88.8252 31.4993 89.3793C29.9237 89.9334 28.2522 90.1631 26.5855 90.0545C26.6217 88.4211 26.9804 86.811 27.6412 85.3167C28.3019 83.8225 29.2516 82.4737 30.4356 81.3479H30.4233ZM10.412 103.777C8.52156 102.275 6.95443 100.406 5.80483 98.2826C4.65523 96.1592 3.94693 93.8252 3.7225 91.421C6.15323 90.9995 8.64487 91.0853 11.0408 91.6731C13.4368 92.2608 15.6853 93.3378 17.645 94.8364C19.6047 96.335 21.2332 98.2228 22.4282 100.381C23.6232 102.539 24.3588 104.921 24.5889 107.378C22.1056 107.812 19.5584 107.716 17.1149 107.095C14.6715 106.475 12.3871 105.344 10.412 103.777ZM18.5581 74.0774C17.0357 72.1786 16.3123 69.7617 16.541 67.3388C19.0082 67.5582 21.2878 68.7469 22.88 70.6443C24.4722 72.5418 25.2471 74.9931 25.0349 77.461C25.0122 77.4851 24.9916 77.5111 24.9735 77.5387C23.7264 77.4227 22.5155 77.0563 21.4132 76.4616C20.3109 75.8668 19.3398 75.0559 18.5581 74.0774ZM122.275 34.9803L123.808 34.4075L126.346 41.1989L124.813 41.7717L122.275 34.9803ZM127.353 48.5385L128.886 47.9657L130.676 52.756L129.143 53.3288L127.353 48.5385ZM95.8157 34.9733L97.3488 34.4005L99.8855 41.1923L98.3524 41.7651L95.8157 34.9733ZM100.894 48.5496L102.427 47.9768L104.217 52.7675L102.684 53.3403L100.894 48.5496ZM70.177 34.966L71.7101 34.3932L74.248 41.1842L72.715 41.757L70.177 34.966ZM75.2467 48.5647L76.7798 47.9919L78.5702 52.783L77.0372 53.3558L75.2467 48.5647ZM43.7221 34.9713L45.2552 34.3985L47.7931 41.1903L46.2601 41.7631L43.7221 34.9713ZM48.7919 48.5623L50.3249 47.9895L52.1149 52.7806L50.5819 53.3534L48.7919 48.5623ZM17.2619 34.9721L18.7954 34.3993L21.3321 41.1911L19.7986 41.7639L17.2619 34.9721ZM22.337 48.5529L23.87 47.9801L25.6604 52.7711L24.1274 53.3439L22.337 48.5529ZM6.66343 52.7744L8.45262 47.9833L9.98569 48.5561L8.1965 53.3468L6.66343 52.7744ZM10.9869 41.1944L13.5248 34.4034L15.0574 34.9762L12.5199 41.7676L10.9869 41.1944ZM112.222 52.7769L114.012 47.9858L115.545 48.5586L113.755 53.3497L112.222 52.7769ZM116.551 41.196L119.088 34.4046L120.621 34.9774L118.083 41.7692L116.551 41.196ZM86.5842 52.7793L88.3746 47.9882L89.9076 48.561L88.1172 53.3521L86.5842 52.7793ZM90.9109 41.2022L93.4484 34.4104L94.9814 34.9836L92.4439 41.775L90.9109 41.2022ZM60.126 52.7826L61.9164 47.9919L63.4495 48.5647L61.659 53.3558L60.126 52.7826ZM64.4482 41.2018L66.9861 34.4104L68.5192 34.9832L65.9813 41.775L64.4482 41.2018ZM33.6694 52.7822L35.4595 47.9911L36.9925 48.5639L35.2025 53.355L33.6694 52.7822ZM37.9876 41.185L40.5251 34.3932L42.0581 34.966L39.5206 41.7578L37.9876 41.185ZM128.786 11.8669H101.549L95.3791 1H43.1682L36.9982 11.871H9.76148C8.64447 11.8731 7.57383 12.3178 6.78398 13.1077C5.99414 13.8975 5.54945 14.9682 5.54729 16.0852V24.2681H13.2638L14.7203 28.1754L16.1564 27.6394L17.5925 28.1754L19.0532 24.2681H39.7191L41.1797 28.1754L42.714 27.6026L41.4866 24.2681H44.3301L43.1027 27.6026L44.637 28.1754L46.0976 24.2681H66.2194L67.68 28.1754L69.2143 27.6026L67.9869 24.2681H70.7732L69.5212 27.5944L71.0555 28.1672L72.5161 24.2599H91.8196L93.2761 28.1672L94.8104 27.5944L93.583 24.2599H97.2407L96.0133 27.5944L97.5435 28.1672L99.0042 24.2599H118.275L119.736 28.1672L121.27 27.5944L120.022 24.2599H122.865L121.618 27.5944L123.152 28.1672L124.613 24.2599H133V16.077C132.997 14.9607 132.552 13.8911 131.762 13.1021C130.972 12.3132 129.902 11.869 128.786 11.8669ZM44.1215 2.63658H94.4463L99.6547 11.8178H38.9131L44.1215 2.63658ZM9.75329 13.5076H128.786C129.328 13.5066 129.856 13.6759 130.297 13.9916C130.737 14.3073 131.067 14.7534 131.241 15.2669H7.31479C7.48686 14.7539 7.8155 14.3079 8.25442 13.9915C8.69334 13.6752 9.22043 13.5045 9.76148 13.5035L9.75329 13.5076ZM16.1482 27.353L15.0026 24.2803H17.2979L16.1482 27.353ZM131.355 22.6438H7.18387V16.9157H131.363L131.355 22.6438Z" stroke="#F8F8FF" stroke-width="2" mask="url(#path-1-outside-1_17_321)"/>
</g>
</g>
</svg>
