<svg width="24" height="24" viewBox="0 0 24 24" fill="none" xmlns="http://www.w3.org/2000/svg">
<g id="ph:arrow-up">
<path id="Vector" d="M12.9688 19.281C12.8991 19.2114 12.8437 19.1287 12.806 19.0376C12.7682 18.9466 12.7488 18.849 12.7488 18.7504C12.7488 18.6519 12.7682 18.5543 12.806 18.4632C12.8437 18.3722 12.8991 18.2894 12.9688 18.2198L18.4391 12.7504L3.74941 12.7504C3.5505 12.7504 3.35973 12.6714 3.21908 12.5307C3.07843 12.3901 2.99941 12.1993 2.99941 12.0004C2.99941 11.8015 3.07843 11.6107 3.21908 11.4701C3.35973 11.3294 3.5505 11.2504 3.74941 11.2504L18.4391 11.2504L12.9688 5.78104C12.8281 5.64031 12.749 5.44944 12.749 5.25042C12.749 5.05139 12.8281 4.86052 12.9688 4.71979C13.1095 4.57906 13.3004 4.5 13.4994 4.5C13.6984 4.5 13.8893 4.57906 14.03 4.71979L20.78 11.4698C20.8498 11.5394 20.9051 11.6222 20.9428 11.7132C20.9806 11.8043 21 11.9019 21 12.0004C21 12.099 20.9806 12.1966 20.9428 12.2876C20.9051 12.3787 20.8498 12.4614 20.78 12.531L14.03 19.281C13.9604 19.3508 13.8777 19.4061 13.7866 19.4438C13.6956 19.4816 13.598 19.501 13.4994 19.501C13.4008 19.501 13.3033 19.4816 13.2122 19.4438C13.1212 19.4061 13.0384 19.3508 12.9688 19.281Z" fill="#F8F8FF"/>
</g>
</svg>
